<?xml version="1.0" encoding="UTF-8" standalone="no"?><!DOCTYPE svg PUBLIC "-//W3C//DTD SVG 1.1//EN" "http://www.w3.org/Graphics/SVG/1.1/DTD/svg11.dtd"><svg width="100%" height="100%" viewBox="0 0 54 84" version="1.1" xmlns="http://www.w3.org/2000/svg" xmlns:xlink="http://www.w3.org/1999/xlink" xml:space="preserve" xmlns:serif="http://www.serif.com/" style="fill-rule:evenodd;clip-rule:evenodd;stroke-linecap:round;stroke-linejoin:round;stroke-miterlimit:1.5;"><g><path d="M44.002,26.084c-0.619,2.277 -1.652,4.383 -3.013,6.234l3.013,-6.234Zm-33.563,6.234c-1.362,-1.851 -2.395,-3.957 -3.014,-6.234l3.014,6.234Z" style="fill:#fff;stroke:#3d6ca4;stroke-width:0.41px;"/><path d="M44.019,26.023l0.013,-0l-0.03,0.061c0.006,-0.02 0.011,-0.041 0.017,-0.061Zm-36.594,0.061l-0.029,-0.061l0.013,-0c0.005,0.02 0.011,0.041 0.016,0.061Z" style="fill:#fff;stroke:#3d6ca4;stroke-width:0.37px;stroke-miterlimit:5;"/><path d="M7.409,26.023c-0.421,-1.568 -0.645,-3.216 -0.645,-4.915c0,-10.459 8.491,-18.95 18.95,-18.95c10.459,-0 18.95,8.491 18.95,18.95c-0,1.699 -0.225,3.347 -0.645,4.915c-0.006,0.02 -0.011,0.041 -0.017,0.061l-18.288,37.838l-18.289,-37.838c-0.005,-0.02 -0.011,-0.041 -0.016,-0.061Z" style="fill:none;stroke:#3d6ca4;stroke-width:4.32px;"/><circle cx="25.714" cy="21.082" r="8.843" style="fill:none;stroke:#3d6ca4;stroke-width:4px;stroke-miterlimit:5;"/><path d="M44.002,26.084c-0.619,2.277 -1.652,4.383 -3.013,6.234l3.013,-6.234Zm-33.563,6.234c-1.362,-1.851 -2.395,-3.957 -3.014,-6.234l3.014,6.234Z" style="fill:#fff;stroke:#3d6ca4;stroke-width:0.41px;"/><path d="M44.019,26.023l0.013,-0l-0.03,0.061c0.006,-0.02 0.011,-0.041 0.017,-0.061Zm-36.594,0.061l-0.029,-0.061l0.013,-0c0.005,0.02 0.011,0.041 0.016,0.061Z" style="fill:#fff;stroke:#3d6ca4;stroke-width:0.37px;stroke-miterlimit:5;"/></g><g><path d="M44.002,26.084c-0.619,2.277 -1.652,4.383 -3.013,6.234l3.013,-6.234Zm-33.563,6.234c-1.362,-1.851 -2.395,-3.957 -3.014,-6.234l3.014,6.234Z" style="fill:#fff;stroke:#3d6ca4;stroke-width:0.41px;"/><path d="M44.019,26.023l0.013,-0l-0.03,0.061c0.006,-0.02 0.011,-0.041 0.017,-0.061Zm-36.594,0.061l-0.029,-0.061l0.013,-0c0.005,0.02 0.011,0.041 0.016,0.061Z" style="fill:#fff;stroke:#3d6ca4;stroke-width:0.37px;stroke-miterlimit:5;"/><path d="M7.409,26.023c-0.421,-1.568 -0.645,-3.216 -0.645,-4.915c0,-10.459 8.491,-18.95 18.95,-18.95c10.459,-0 18.95,8.491 18.95,18.95c-0,1.699 -0.225,3.347 -0.645,4.915c-0.006,0.02 -0.011,0.041 -0.017,0.061l-18.288,37.838l-18.289,-37.838c-0.005,-0.02 -0.011,-0.041 -0.016,-0.061Z" style="fill:none;stroke:#3d6ca4;stroke-width:4.32px;"/><circle cx="25.714" cy="21.082" r="8.843" style="fill:none;stroke:#3d6ca4;stroke-width:4px;stroke-miterlimit:5;"/><path d="M44.002,26.084c-0.619,2.277 -1.652,4.383 -3.013,6.234l3.013,-6.234Zm-33.563,6.234c-1.362,-1.851 -2.395,-3.957 -3.014,-6.234l3.014,6.234Z" style="fill:#fff;stroke:#3d6ca4;stroke-width:0.41px;"/><path d="M44.019,26.023l0.013,-0l-0.03,0.061c0.006,-0.02 0.011,-0.041 0.017,-0.061Zm-36.594,0.061l-0.029,-0.061l0.013,-0c0.005,0.02 0.011,0.041 0.016,0.061Z" style="fill:#fff;stroke:#3d6ca4;stroke-width:0.37px;stroke-miterlimit:5;"/></g><ellipse cx="26.663" cy="77.178" rx="23.663" ry="2.835" style="fill:#406ca4;stroke:#406ca4;stroke-width:6px;"/></svg>