<?xml version="1.0" encoding="UTF-8" standalone="no"?><!DOCTYPE svg PUBLIC "-//W3C//DTD SVG 1.1//EN" "http://www.w3.org/Graphics/SVG/1.1/DTD/svg11.dtd"><svg width="100%" height="100%" viewBox="0 0 55 55" version="1.1" xmlns="http://www.w3.org/2000/svg" xmlns:xlink="http://www.w3.org/1999/xlink" xml:space="preserve" xmlns:serif="http://www.serif.com/" style="fill-rule:evenodd;clip-rule:evenodd;"><g id="picto-ski-de-fond" serif:id="picto ski de fond"></g><rect id="Plan-de-travail1" serif:id="Plan de travail1" x="-415.699" y="-10.807" width="821.5" height="213.182" style="fill:none;"/><g id="Layer-1" serif:id="Layer 1"></g><g id="chornometre"></g><g id="Parcours_Blanc"><path d="M2.921,50.431c0,0.904 0.733,1.637 1.637,1.637l45.872,0c0.905,0 1.637,-0.733 1.637,-1.637l0,-45.873c0,-0.904 -0.732,-1.637 -1.637,-1.637l-45.872,0c-0.904,0 -1.637,0.733 -1.637,1.637l0,45.873Z" style="fill:#2e3092;fill-opacity:0;stroke:#406ca4;stroke-width:1.42px;"/><path d="M14.733,38.14c-0.794,-0.785 -1.229,-1.838 -1.229,-2.964c0,-1.113 0.435,-2.161 1.229,-2.959c0.782,-0.786 1.844,-1.223 2.957,-1.223c2.313,-0 4.194,1.878 4.194,4.182c0,2.308 -1.881,4.19 -4.194,4.197c-1.113,0 -2.168,-0.442 -2.957,-1.233m-2.279,-8.191c-1.397,1.398 -2.168,3.256 -2.168,5.235c0,1.976 0.771,3.832 2.173,5.228c1.4,1.401 3.257,2.167 5.231,2.167c4.092,-0 7.397,-3.327 7.397,-7.403c0.01,-4.078 -3.305,-7.396 -7.397,-7.396c-1.98,-0 -3.837,0.772 -5.236,2.169" style="fill:#406ca4;"/><path d="M35.675,38.134c-0.794,-0.786 -1.228,-1.842 -1.226,-2.95c-0.002,-1.128 0.432,-2.177 1.226,-2.967c0.787,-0.796 1.84,-1.223 2.954,-1.223c2.305,-0 4.195,1.879 4.195,4.181c0,2.317 -1.884,4.198 -4.195,4.198c-1.114,0 -2.167,-0.442 -2.954,-1.239m-2.28,-8.186c-1.395,1.398 -2.159,3.257 -2.159,5.236c0,1.964 0.764,3.829 2.159,5.228c1.401,1.401 3.252,2.166 5.234,2.166c4.089,0.003 7.406,-3.309 7.409,-7.394l0,-0.009c0,-4.077 -3.32,-7.395 -7.409,-7.402c-1.982,-0 -3.833,0.773 -5.234,2.175" style="fill:#406ca4;"/><path d="M27.754,29.96c-0.387,0.468 -0.973,1.143 -1.594,1.877l0,-3.527c0.604,0.62 1.188,1.224 1.594,1.65m9.191,-4.788l-4.867,-7.479c-0.258,-0.39 -0.665,-0.66 -1.132,-0.715c-0.464,-0.07 -0.939,0.082 -1.287,0.393l-6.283,5.663c-0.312,0.294 -0.507,0.706 -0.522,1.137l0,0.056c0,0.216 0.097,0.717 0.097,0.772l0,10.67c-0.197,0.274 -0.307,0.59 -0.307,0.901c0,0.32 0.127,0.613 0.307,0.877l0,2.616c0,0.881 0.723,1.61 1.617,1.61c0.877,0 1.592,-0.729 1.592,-1.61l0,-3.259l4.985,-5.87c0.262,-0.302 0.381,-0.671 0.381,-1.041c0,-0.406 -0.149,-0.806 -0.444,-1.12c0,0 -2.884,-2.976 -4.318,-4.466c1.158,-1.042 2.382,-2.148 3.642,-3.29c1.276,1.971 3.834,5.906 3.834,5.906c0.486,0.739 1.481,0.957 2.227,0.471c0.74,-0.484 0.957,-1.478 0.478,-2.222" style="fill:#406ca4;"/><path d="M38.441,15.794c0,1.491 -1.211,2.696 -2.702,2.696c-1.493,-0 -2.697,-1.205 -2.697,-2.696c0,-1.492 1.204,-2.704 2.697,-2.704c1.491,0 2.702,1.212 2.702,2.704" style="fill:#406ca4;"/></g><g id="Depart_Blanc"></g></svg>