<?xml version="1.0" encoding="UTF-8" standalone="no"?><!DOCTYPE svg PUBLIC "-//W3C//DTD SVG 1.1//EN" "http://www.w3.org/Graphics/SVG/1.1/DTD/svg11.dtd"><svg width="100%" height="100%" viewBox="0 0 54 82" version="1.1" xmlns="http://www.w3.org/2000/svg" xmlns:xlink="http://www.w3.org/1999/xlink" xml:space="preserve" xmlns:serif="http://www.serif.com/" style="fill-rule:evenodd;clip-rule:evenodd;stroke-linecap:round;stroke-linejoin:round;stroke-miterlimit:1.5;"><g><path d="M45.907,26.084c-0.618,2.277 -1.652,4.383 -3.013,6.234l3.013,-6.234Zm-33.563,6.234c-1.361,-1.851 -2.394,-3.957 -3.013,-6.234l3.013,6.234Z" style="fill:#fff;stroke:#3d6ca4;stroke-width:0.41px;"/><path d="M45.924,26.023l0.013,-0l-0.03,0.061c0.006,-0.02 0.012,-0.041 0.017,-0.061Zm-36.593,0.061l-0.03,-0.061l0.013,-0c0.006,0.02 0.011,0.041 0.017,0.061Z" style="fill:#fff;stroke:#3d6ca4;stroke-width:0.37px;stroke-miterlimit:5;"/><path d="M9.314,26.023c-0.42,-1.568 -0.645,-3.216 -0.645,-4.915c0,-10.459 8.491,-18.95 18.95,-18.95c10.459,-0 18.95,8.491 18.95,18.95c-0,1.699 -0.224,3.347 -0.645,4.915c-0.005,0.02 -0.011,0.041 -0.017,0.061l-18.288,37.838l-18.288,-37.838c-0.006,-0.02 -0.011,-0.041 -0.017,-0.061Z" style="fill:none;stroke:#3d6ca4;stroke-width:4.32px;"/><circle cx="27.619" cy="21.082" r="8.843" style="fill:none;stroke:#3d6ca4;stroke-width:4px;stroke-miterlimit:5;"/><path d="M45.907,26.084c-0.618,2.277 -1.652,4.383 -3.013,6.234l3.013,-6.234Zm-33.563,6.234c-1.361,-1.851 -2.394,-3.957 -3.013,-6.234l3.013,6.234Z" style="fill:#fff;stroke:#3d6ca4;stroke-width:0.41px;"/><path d="M45.924,26.023l0.013,-0l-0.03,0.061c0.006,-0.02 0.012,-0.041 0.017,-0.061Zm-36.593,0.061l-0.03,-0.061l0.013,-0c0.006,0.02 0.011,0.041 0.017,0.061Z" style="fill:#fff;stroke:#3d6ca4;stroke-width:0.37px;stroke-miterlimit:5;"/></g><g><path d="M45.907,26.084c-0.618,2.277 -1.652,4.383 -3.013,6.234l3.013,-6.234Zm-33.563,6.234c-1.361,-1.851 -2.394,-3.957 -3.013,-6.234l3.013,6.234Z" style="fill:#fff;stroke:#fff;stroke-width:0.41px;"/><path d="M45.924,26.023l0.013,-0l-0.03,0.061c0.006,-0.02 0.012,-0.041 0.017,-0.061Zm-36.593,0.061l-0.03,-0.061l0.013,-0c0.006,0.02 0.011,0.041 0.017,0.061Z" style="fill:#fff;stroke:#fff;stroke-width:0.37px;stroke-miterlimit:5;"/><path d="M9.314,26.023c-0.42,-1.568 -0.645,-3.216 -0.645,-4.915c0,-10.459 8.491,-18.95 18.95,-18.95c10.459,-0 18.95,8.491 18.95,18.95c-0,1.699 -0.224,3.347 -0.645,4.915c-0.005,0.02 -0.011,0.041 -0.017,0.061l-18.288,37.838l-18.288,-37.838c-0.006,-0.02 -0.011,-0.041 -0.017,-0.061Z" style="fill:none;stroke:#fff;stroke-width:4.32px;"/><circle cx="27.619" cy="21.082" r="8.843" style="fill:none;stroke:#fff;stroke-width:4px;stroke-miterlimit:5;"/><path d="M45.907,26.084c-0.618,2.277 -1.652,4.383 -3.013,6.234l3.013,-6.234Zm-33.563,6.234c-1.361,-1.851 -2.394,-3.957 -3.013,-6.234l3.013,6.234Z" style="fill:#fff;stroke:#fff;stroke-width:0.41px;"/><path d="M45.924,26.023l0.013,-0l-0.03,0.061c0.006,-0.02 0.012,-0.041 0.017,-0.061Zm-36.593,0.061l-0.03,-0.061l0.013,-0c0.006,0.02 0.011,0.041 0.017,0.061Z" style="fill:#fff;stroke:#fff;stroke-width:0.37px;stroke-miterlimit:5;"/></g><ellipse cx="26.663" cy="75.56" rx="23.663" ry="2.835" style="fill:#406ca4;stroke:#fff;stroke-width:6px;"/></svg>