<?xml version="1.0" encoding="UTF-8" standalone="no"?><!DOCTYPE svg PUBLIC "-//W3C//DTD SVG 1.1//EN" "http://www.w3.org/Graphics/SVG/1.1/DTD/svg11.dtd"><svg width="100%" height="100%" viewBox="0 0 172 132" version="1.1" xmlns="http://www.w3.org/2000/svg" xmlns:xlink="http://www.w3.org/1999/xlink" xml:space="preserve" xmlns:serif="http://www.serif.com/" style="fill-rule:evenodd;clip-rule:evenodd;stroke-linecap:round;stroke-linejoin:round;stroke-miterlimit:5;"><path d="M158.98,53.441l-14.123,-12.877l-12.876,14.123l14.123,12.876l12.876,-14.122Z" style="fill:#406ca4;fill-opacity:0;"/><path d="M158.98,53.441l-14.123,-12.877l-12.876,14.123l14.123,12.876l12.876,-14.122Z" style="fill:#fff;"/><path d="M158.98,53.441l-14.123,-12.877l-12.876,14.123l14.123,12.876l12.876,-14.122Z" style="fill:none;stroke:#3d6ca4;stroke-width:0.1px;"/><path d="M133.227,81.686l-14.123,-12.876l-12.877,14.122l14.123,12.877l12.877,-14.123Z" style="fill:#406ca4;fill-opacity:0;"/><path d="M133.227,81.686l-14.123,-12.876l-12.877,14.122l14.123,12.877l12.877,-14.123Z" style="fill:#fff;"/><path d="M133.227,81.686l-14.123,-12.876l-12.877,14.122l14.123,12.877l12.877,-14.123Z" style="fill:none;stroke:#3d6ca4;stroke-width:0.1px;"/><path d="M144.857,40.564l-14.122,-12.877l-12.877,14.123l14.123,12.877l12.876,-14.123Z" style="fill:#406ca4;fill-opacity:0;"/><path d="M144.857,40.564l-14.122,-12.877l-12.877,14.123l14.123,12.877l12.876,-14.123Z" style="fill:#406ca4;"/><path d="M144.857,40.564l-14.122,-12.877l-12.877,14.123l14.123,12.877l12.876,-14.123Z" style="fill:none;stroke:#3d6ca4;stroke-width:0.1px;"/><path d="M117.858,41.81l-14.123,-12.877l-12.876,14.123l14.122,12.877l12.877,-14.123Z" style="fill:#406ca4;fill-opacity:0;"/><path d="M117.858,41.81l-14.123,-12.877l-12.876,14.123l14.122,12.877l12.877,-14.123Z" style="fill:#406ca4;"/><path d="M117.858,41.81l-14.123,-12.877l-12.876,14.123l14.122,12.877l12.877,-14.123Z" style="fill:none;stroke:#3d6ca4;stroke-width:0.1px;"/><path d="M146.104,67.563l-14.123,-12.876l-12.877,14.123l14.123,12.876l12.877,-14.123Z" style="fill:#406ca4;fill-opacity:0;"/><path d="M146.104,67.563l-14.123,-12.876l-12.877,14.123l14.123,12.876l12.877,-14.123Z" style="fill:#406ca4;"/><path d="M146.104,67.563l-14.123,-12.876l-12.877,14.123l14.123,12.876l12.877,-14.123Z" style="fill:none;stroke:#3d6ca4;stroke-width:0.1px;"/><path d="M130.735,27.687l-14.123,-12.876l-12.877,14.122l14.123,12.877l12.877,-14.123Z" style="fill:#2a558f;fill-opacity:0;"/><path d="M130.735,27.687l-14.123,-12.876l-12.877,14.122l14.123,12.877l12.877,-14.123Z" style="fill:#fff;"/><path d="M130.735,27.687l-14.123,-12.876l-12.877,14.122l14.123,12.877l12.877,-14.123Z" style="fill:none;stroke:#3d6ca4;stroke-width:0.1px;"/><path d="M120.251,10.876c1.332,-1.462 1.227,-3.73 -0.234,-5.062l-5.296,-4.829c-1.462,-1.333 -3.73,-1.228 -5.063,0.233l-108.673,119.191c-1.333,1.461 -1.228,3.73 0.233,5.062l5.296,4.829c1.462,1.332 3.73,1.228 5.063,-0.234l108.674,-119.19Z" style="fill:#406ca4;fill-opacity:0;"/><path d="M120.251,10.876c1.332,-1.462 1.227,-3.73 -0.234,-5.062l-5.296,-4.829c-1.462,-1.333 -3.73,-1.228 -5.063,0.233l-108.673,119.191c-1.333,1.461 -1.228,3.73 0.233,5.062l5.296,4.829c1.462,1.332 3.73,1.228 5.063,-0.234l108.674,-119.19Z" style="fill:#406ca4;"/><path d="M120.251,10.876c1.332,-1.462 1.227,-3.73 -0.234,-5.062l-5.296,-4.829c-1.462,-1.333 -3.73,-1.228 -5.063,0.233l-108.673,119.191c-1.333,1.461 -1.228,3.73 0.233,5.062l5.296,4.829c1.462,1.332 3.73,1.228 5.063,-0.234l108.674,-119.19Z" style="fill:none;stroke:#3d6ca4;stroke-width:0.1px;"/><path d="M169.149,62.712c2.182,1.99 2.338,5.377 0.349,7.56l-9.272,10.168l-14.122,-12.877l12.876,-14.122l10.169,9.271Z" style="fill:#406ca4;fill-opacity:0;"/><path d="M169.149,62.712c2.182,1.99 2.338,5.377 0.349,7.56l-9.272,10.168l-14.122,-12.877l12.876,-14.122l10.169,9.271Z" style="fill:#406ca4;"/><path d="M169.149,62.712c2.182,1.99 2.338,5.377 0.349,7.56l-9.272,10.168l-14.122,-12.877l12.876,-14.122l10.169,9.271Z" style="fill:none;stroke:#3d6ca4;stroke-width:0.1px;"/><path d="M160.226,80.44l-14.122,-12.877l-12.877,14.123l14.123,12.877l12.876,-14.123Z" style="fill:#406ca4;fill-opacity:0;"/><path d="M160.226,80.44l-14.122,-12.877l-12.877,14.123l14.123,12.877l12.876,-14.123Z" style="fill:#fff;"/><path d="M160.226,80.44l-14.122,-12.877l-12.877,14.123l14.123,12.877l12.876,-14.123Z" style="fill:none;stroke:#3d6ca4;stroke-width:0.1px;"/><path d="M147.35,94.563l-14.123,-12.877l-12.877,14.123l14.123,12.877l12.877,-14.123Z" style="fill:#406ca4;fill-opacity:0;stroke:#3d6ca4;stroke-width:0.1px;"/><path d="M125.202,118.854l9.271,-10.168l-14.123,-12.877l-12.877,14.123l10.169,9.271c2.182,1.99 5.57,1.834 7.56,-0.349Z" style="fill:#406ca4;fill-opacity:0;"/><path d="M125.202,118.854l9.271,-10.168l-14.123,-12.877l-12.877,14.123l10.169,9.271c2.182,1.99 5.57,1.834 7.56,-0.349Z" style="fill:#fff;"/><path d="M125.202,118.854l9.271,-10.168l-14.123,-12.877l-12.877,14.123l10.169,9.271c2.182,1.99 5.57,1.834 7.56,-0.349Z" style="fill:none;stroke:#3d6ca4;stroke-width:0.1px;"/><path d="M120.35,95.809l-14.123,-12.877l-12.876,14.123l14.122,12.877l12.877,-14.123Z" style="fill:#406ca4;fill-opacity:0;stroke:#3d6ca4;stroke-width:0.1px;"/><path d="M131.981,54.687l-14.123,-12.877l-12.877,14.123l14.123,12.877l12.877,-14.123Z" style="fill:#406ca4;fill-opacity:0;"/><path d="M131.981,54.687l-14.123,-12.877l-12.877,14.123l14.123,12.877l12.877,-14.123Z" style="fill:#fff;"/><path d="M131.981,54.687l-14.123,-12.877l-12.877,14.123l14.123,12.877l12.877,-14.123Z" style="fill:none;stroke:#3d6ca4;stroke-width:0.1px;"/><path d="M119.104,68.81l-14.123,-12.877l-12.876,14.123l14.122,12.876l12.877,-14.122Z" style="fill:#406ca4;fill-opacity:0;stroke:#3d6ca4;stroke-width:0.1px;"/><path d="M106.227,82.932l-14.122,-12.876l-12.877,14.122l14.123,12.877l12.876,-14.123Z" style="fill:#406ca4;fill-opacity:0;"/><path d="M106.227,82.932l-14.122,-12.876l-12.877,14.122l14.123,12.877l12.876,-14.123Z" style="fill:#fff;"/><path d="M106.227,82.932l-14.122,-12.876l-12.877,14.122l14.123,12.877l12.876,-14.123Z" style="fill:none;stroke:#3d6ca4;stroke-width:0.1px;"/><path d="M92.105,70.056l-14.123,-12.877l-12.877,14.123l14.123,12.876l12.877,-14.122Z" style="fill:#406ca4;fill-opacity:0;stroke:#3d6ca4;stroke-width:0.1px;"/><path d="M104.981,55.933l-14.122,-12.877l-12.877,14.123l14.123,12.877l12.876,-14.123Z" style="fill:#406ca4;fill-opacity:0;"/><path d="M104.981,55.933l-14.122,-12.877l-12.877,14.123l14.123,12.877l12.876,-14.123Z" style="fill:#fff;"/><path d="M104.981,55.933l-14.122,-12.877l-12.877,14.123l14.123,12.877l12.876,-14.123Z" style="fill:none;stroke:#3d6ca4;stroke-width:0.1px;"/><path d="M119.104,68.81l-14.123,-12.877l-12.876,14.123l14.122,12.876l12.877,-14.122Z" style="fill:#406ca4;fill-opacity:0;"/><path d="M119.104,68.81l-14.123,-12.877l-12.876,14.123l14.122,12.876l12.877,-14.122Z" style="fill:#406ca4;"/><path d="M119.104,68.81l-14.123,-12.877l-12.876,14.123l14.122,12.876l12.877,-14.122Z" style="fill:none;stroke:#3d6ca4;stroke-width:0.1px;"/><path d="M147.35,94.563l-14.123,-12.877l-12.877,14.123l14.123,12.877l12.877,-14.123Z" style="fill:#406ca4;fill-opacity:0;"/><path d="M147.35,94.563l-14.123,-12.877l-12.877,14.123l14.123,12.877l12.877,-14.123Z" style="fill:#406ca4;"/><path d="M147.35,94.563l-14.123,-12.877l-12.877,14.123l14.123,12.877l12.877,-14.123Z" style="fill:none;stroke:#3d6ca4;stroke-width:0.1px;"/><path d="M92.105,70.056l-14.123,-12.877l-12.877,14.123l14.123,12.876l12.877,-14.122Z" style="fill:#406ca4;fill-opacity:0;"/><path d="M92.105,70.056l-14.123,-12.877l-12.877,14.123l14.123,12.876l12.877,-14.122Z" style="fill:#406ca4;"/><path d="M92.105,70.056l-14.123,-12.877l-12.877,14.123l14.123,12.876l12.877,-14.122Z" style="fill:none;stroke:#3d6ca4;stroke-width:0.1px;"/><path d="M120.35,95.809l-14.123,-12.877l-12.876,14.123l14.122,12.877l12.877,-14.123Z" style="fill:#406ca4;fill-opacity:0;"/><path d="M120.35,95.809l-14.123,-12.877l-12.876,14.123l14.122,12.877l12.877,-14.123Z" style="fill:#406ca4;"/><path d="M120.35,95.809l-14.123,-12.877l-12.876,14.123l14.122,12.877l12.877,-14.123Z" style="fill:none;stroke:#3d6ca4;stroke-width:0.1px;"/><path d="M117.642,119.203l-53.851,-49.099c-2.182,-1.99 -2.338,-5.377 -0.348,-7.56l44.295,-48.582c1.99,-2.183 5.378,-2.339 7.56,-0.349l53.851,49.099c2.182,1.99 2.338,5.377 0.349,7.56l-44.296,48.582c-1.99,2.183 -5.378,2.339 -7.56,0.349Z" style="fill:none;stroke:#3d6ca4;stroke-width:1px;"/></svg>