<?xml version="1.0" encoding="UTF-8" standalone="no"?><!DOCTYPE svg PUBLIC "-//W3C//DTD SVG 1.1//EN" "http://www.w3.org/Graphics/SVG/1.1/DTD/svg11.dtd"><svg width="100%" height="100%" viewBox="0 0 233 251" version="1.1" xmlns="http://www.w3.org/2000/svg" xmlns:xlink="http://www.w3.org/1999/xlink" xml:space="preserve" xmlns:serif="http://www.serif.com/" style="fill-rule:evenodd;clip-rule:evenodd;stroke-linecap:round;stroke-linejoin:round;stroke-miterlimit:1.5;"><g><path d="M3,76.701l226.772,-0l-0,56.693l-226.772,-0l0,-56.693Z" style="fill:none;stroke:#406ca4;stroke-width:6px;"/><path d="M3,133.394l226.772,-0l-0,56.693l-226.772,-0l0,-56.693Z" style="fill:none;stroke:#406ca4;stroke-width:6px;"/><path d="M3,190.567l226.772,-0l-0,56.693l-226.772,-0l0,-56.693Z" style="fill:none;stroke:#406ca4;stroke-width:6px;"/><rect x="3" y="37.016" width="226.772" height="34.016" style="fill:#fffded;stroke:#406ca4;stroke-width:6px;"/><path d="M187.252,5.835l-0,45.354c-0,1.564 -1.27,2.835 -2.835,2.835l-22.677,-0c-1.564,-0 -2.834,-1.271 -2.834,-2.835l-0,-45.354c-0,-1.565 1.27,-2.835 2.834,-2.835l22.677,-0c1.565,-0 2.835,1.27 2.835,2.835Z" style="fill:#406ca4;stroke:#406ca4;stroke-width:6px;"/><path d="M73.866,5.835l0,45.354c0,1.564 -1.27,2.835 -2.835,2.835l-22.677,-0c-1.564,-0 -2.834,-1.271 -2.834,-2.835l-0,-45.354c-0,-1.565 1.27,-2.835 2.834,-2.835l22.677,0c1.565,0 2.835,1.27 2.835,2.835Z" style="fill:#406ca4;stroke:#406ca4;stroke-width:6px;"/><rect x="173.079" y="73.866" width="56.693" height="172.913" style="fill:none;stroke:#406ca4;stroke-width:6px;"/><rect x="116.386" y="73.866" width="56.693" height="172.913" style="fill:none;stroke:#406ca4;stroke-width:6px;"/><rect x="59.693" y="71.031" width="56.693" height="175.748" style="fill:none;stroke:#406ca4;stroke-width:6px;"/></g></svg>