<?xml version="1.0" encoding="UTF-8" standalone="no"?><!DOCTYPE svg PUBLIC "-//W3C//DTD SVG 1.1//EN" "http://www.w3.org/Graphics/SVG/1.1/DTD/svg11.dtd"><svg width="100%" height="100%" viewBox="0 0 55 55" version="1.1" xmlns="http://www.w3.org/2000/svg" xmlns:xlink="http://www.w3.org/1999/xlink" xml:space="preserve" xmlns:serif="http://www.serif.com/" style="fill-rule:evenodd;clip-rule:evenodd;"><g><path d="M2.921,50.43c0,0.904 0.733,1.638 1.638,1.638l45.872,-0c0.904,-0 1.637,-0.734 1.637,-1.638l-0,-45.871c-0,-0.905 -0.733,-1.638 -1.637,-1.638l-45.872,0c-0.905,0 -1.638,0.733 -1.638,1.638l0,45.871Z" style="fill:#2e3092;fill-opacity:0;stroke:#3d6ca4;stroke-width:1.42px;"/><path d="M41.484,20.667c-0,1.744 -1.418,3.161 -3.161,3.161c-1.743,-0 -3.154,-1.417 -3.154,-3.161c0,-1.747 1.411,-3.171 3.154,-3.171c1.743,-0 3.161,1.424 3.161,3.171" style="fill:#2a558f;"/><path d="M18.415,8.476c-0.755,0.714 -0.801,1.906 -0.092,2.658l19.134,20.537c0.356,0.373 0.856,0.587 1.381,0.587l8.342,0c1.049,0 1.889,-0.841 1.889,-1.884c-0,-1.037 -0.84,-1.875 -1.889,-1.875l-7.524,-0c-1.059,-1.117 -18.576,-19.929 -18.576,-19.929c-0.707,-0.762 -1.894,-0.807 -2.665,-0.094" style="fill:#3d6ca4;"/><path d="M22.179,21.009c-0.704,0.296 -1.166,0.987 -1.166,1.739l0,8.17l-8.963,0c-1.043,0 -1.878,0.856 -1.878,1.892c0,1.048 0.835,1.882 1.878,1.882l10.848,-0c1.043,-0 1.887,-0.834 1.887,-1.882l-0,-5.516c1.923,1.92 3.123,3.129 4.056,4.064c-1.299,1.862 -5.113,7.331 -5.113,7.331c-0.233,0.335 -0.343,0.706 -0.343,1.079c-0,0.594 0.283,1.172 0.801,1.549c0.855,0.591 2.025,0.385 2.616,-0.469l6.034,-8.626c0.519,-0.751 0.425,-1.766 -0.219,-2.415l-8.389,-8.395c-0.538,-0.532 -1.347,-0.696 -2.049,-0.403" style="fill:#3d6ca4;"/><path d="M28.535,43.829c-0,0.924 -0.743,1.674 -1.664,1.674c-0.926,0 -1.669,-0.75 -1.669,-1.674c0,-0.913 0.743,-1.665 1.669,-1.665c0.921,-0 1.664,0.752 1.664,1.665" style="fill:#3d6ca4;"/><path d="M24.578,43.829c-0,0.924 -0.743,1.674 -1.669,1.674c-0.922,0 -1.67,-0.75 -1.67,-1.674c-0,-0.913 0.748,-1.665 1.67,-1.665c0.926,-0 1.669,0.752 1.669,1.665" style="fill:#3d6ca4;"/><path d="M20.623,43.829c-0,0.924 -0.741,1.674 -1.664,1.674c-0.925,0 -1.668,-0.75 -1.668,-1.674c-0,-0.913 0.743,-1.665 1.668,-1.665c0.923,-0 1.664,0.752 1.664,1.665" style="fill:#3d6ca4;"/><path d="M8.25,25.849c0.925,0 1.671,0.745 1.671,1.667c-0,0.924 -0.746,1.666 -1.671,1.666c-0.922,-0 -1.67,-0.742 -1.67,-1.666c0,-0.922 0.748,-1.667 1.67,-1.667" style="fill:#3d6ca4;"/><path d="M8.25,29.798c0.925,-0 1.671,0.749 1.671,1.673c-0,0.924 -0.746,1.667 -1.671,1.667c-0.922,0 -1.67,-0.743 -1.67,-1.667c0,-0.924 0.748,-1.673 1.67,-1.673" style="fill:#3d6ca4;"/><path d="M8.25,33.747c0.925,-0 1.671,0.75 1.671,1.679c-0,0.913 -0.746,1.668 -1.671,1.668c-0.922,0 -1.67,-0.755 -1.67,-1.668c0,-0.929 0.748,-1.679 1.67,-1.679" style="fill:#3d6ca4;"/></g></svg>