<?xml version="1.0" encoding="UTF-8" standalone="no"?>
<!DOCTYPE Zsvg PUBLIC "-//W3C//DTD SVG 1.1//EN" "http://www.w3.org/Graphics/SVG/1.1/DTD/svg11.dtd">
<svg width="100%" height="100%" viewBox="0 0 55 55" version="1.1" xmlns="http://www.w3.org/2000/svg" xmlns:xlink="http://www.w3.org/1999/xlink" xml:space="preserve" xmlns:serif="http://www.serif.com/" style="fill-rule:evenodd;clip-rule:evenodd;">
	<g id="picto-ski-de-fond" serif:id="picto ski de fond"/>
	<rect id="Plan-de-travail1" serif:id="Plan de travail1" x="-415.699" y="-10.807" width="821.5" height="213.182" style="fill:none;"/>
	<g id="Layer-1" serif:id="Layer 1"/>
	<g id="chornometre"/>
	<g id="Parcours_Blanc">
		<path d="M2.921,50.43c0,0.904 0.733,1.638 1.638,1.638l45.872,-0c0.904,-0 1.637,-0.734 1.637,-1.638l-0,-45.872c-0,-0.904 -0.733,-1.637 -1.637,-1.637l-45.872,0c-0.905,0 -1.638,0.733 -1.638,1.637l0,45.872Z" style="fill:#2e3092;fill-opacity:0;stroke:#406ca4;stroke-width:1.42px;"/>
		<path d="M33.07,11.558c0,1.754 -1.413,3.158 -3.152,3.158c-1.747,0 -3.17,-1.404 -3.17,-3.158c-0,-1.745 1.423,-3.161 3.17,-3.161c1.739,0 3.152,1.416 3.152,3.161" style="fill:#406ca4;"/>
		<path d="M37.437,26.32c1.044,-0.053 1.836,-0.943 1.783,-1.982c-0.056,-1.039 -0.942,-1.84 -1.981,-1.779c-0,0 -4.593,0.249 -7.077,0.388c0.466,-2.408 0.883,-4.568 0.883,-4.568c0.026,-0.122 0.036,-0.24 0.036,-0.369c-0,-0.875 -0.612,-1.666 -1.523,-1.842c-0.319,-0.06 -0.645,-0.009 -0.94,0.087c-1.007,0.296 -8.224,2.548 -8.224,2.548c-0.639,0.213 -1.129,0.758 -1.262,1.425l-1.432,7.045c-0.201,1.012 0.46,2.01 1.482,2.215c1.015,0.214 2.011,-0.451 2.216,-1.476c0,-0 0.892,-4.407 1.208,-5.956c0.793,-0.256 1.723,-0.55 3.013,-0.969c-0.848,4.663 -2.312,12.639 -2.529,13.822c-1.469,0.716 -10.525,5.124 -10.525,5.124c-0.667,0.336 -1.061,1.004 -1.061,1.701c0,0.273 0.057,0.55 0.188,0.82c0.462,0.935 1.588,1.327 2.525,0.866l11.388,-5.545c0.532,-0.271 0.915,-0.767 1.019,-1.355l0.765,-4.157c2.007,1.405 5.403,3.776 6.588,4.593c-0.575,1.954 -2.474,8.518 -2.474,8.518c-0.055,0.183 -0.078,0.356 -0.078,0.526c0,0.814 0.538,1.572 1.357,1.808c0.999,0.293 2.049,-0.281 2.335,-1.279l2.845,-9.824c0.054,-0.175 0.076,-0.348 0.076,-0.53c-0,-0.598 -0.283,-1.182 -0.801,-1.529c-0,0 -6.649,-4.643 -8.246,-5.756c0.085,-0.437 0.233,-1.211 0.415,-2.139l8.031,-0.431Z" style="fill:#406ca4;"/>
	</g>
	<g id="Depart_Blanc"/>
</svg>