<?xml version="1.0" encoding="UTF-8" standalone="no"?><!DOCTYPE svg PUBLIC "-//W3C//DTD SVG 1.1//EN" "http://www.w3.org/Graphics/SVG/1.1/DTD/svg11.dtd"><svg width="100%" height="100%" viewBox="0 0 252 252" version="1.1" xmlns="http://www.w3.org/2000/svg" xmlns:xlink="http://www.w3.org/1999/xlink" xml:space="preserve" xmlns:serif="http://www.serif.com/" style="fill-rule:evenodd;clip-rule:evenodd;"><path d="M8.246,235.242c0,4.32 3.502,7.823 7.823,7.823l219.175,0c4.32,0 7.821,-3.503 7.821,-7.823l0,-219.173c0,-4.321 -3.501,-7.823 -7.821,-7.823l-219.175,0c-4.321,0 -7.823,3.502 -7.823,7.823l0,219.173Z" style="fill:#2e3092;fill-opacity:0;stroke:#3d6ca4;stroke-width:4px;"/><path d="M199.021,106.202l-14.123,-12.876l-12.877,14.122l14.123,12.877l12.877,-14.123Z" style="fill:#406ca4;fill-opacity:0;"/><path d="M199.021,106.202l-14.123,-12.876l-12.877,14.122l14.123,12.877l12.877,-14.123Z" style="fill:#fff;"/><path d="M199.021,106.202l-14.123,-12.876l-12.877,14.122l14.123,12.877l12.877,-14.123Z" style="fill:none;stroke:#3d6ca4;stroke-width:0.1px;stroke-linecap:round;stroke-linejoin:round;stroke-miterlimit:5;"/><path d="M173.267,134.448l-14.122,-12.877l-12.877,14.123l14.123,12.877l12.876,-14.123Z" style="fill:#406ca4;fill-opacity:0;"/><path d="M173.267,134.448l-14.122,-12.877l-12.877,14.123l14.123,12.877l12.876,-14.123Z" style="fill:#fff;"/><path d="M173.267,134.448l-14.122,-12.877l-12.877,14.123l14.123,12.877l12.876,-14.123Z" style="fill:none;stroke:#3d6ca4;stroke-width:0.1px;stroke-linecap:round;stroke-linejoin:round;stroke-miterlimit:5;"/><path d="M184.898,93.326l-14.123,-12.877l-12.877,14.123l14.123,12.876l12.877,-14.122Z" style="fill:#406ca4;fill-opacity:0;"/><path d="M184.898,93.326l-14.123,-12.877l-12.877,14.123l14.123,12.876l12.877,-14.122Z" style="fill:#406ca4;"/><path d="M184.898,93.326l-14.123,-12.877l-12.877,14.123l14.123,12.876l12.877,-14.122Z" style="fill:none;stroke:#3d6ca4;stroke-width:0.1px;stroke-linecap:round;stroke-linejoin:round;stroke-miterlimit:5;"/><path d="M157.898,94.572l-14.122,-12.877l-12.877,14.123l14.123,12.876l12.876,-14.122Z" style="fill:#406ca4;fill-opacity:0;"/><path d="M157.898,94.572l-14.122,-12.877l-12.877,14.123l14.123,12.876l12.876,-14.122Z" style="fill:#406ca4;"/><path d="M157.898,94.572l-14.122,-12.877l-12.877,14.123l14.123,12.876l12.876,-14.122Z" style="fill:none;stroke:#3d6ca4;stroke-width:0.1px;stroke-linecap:round;stroke-linejoin:round;stroke-miterlimit:5;"/><path d="M186.144,120.325l-14.123,-12.877l-12.876,14.123l14.122,12.877l12.877,-14.123Z" style="fill:#406ca4;fill-opacity:0;"/><path d="M186.144,120.325l-14.123,-12.877l-12.876,14.123l14.122,12.877l12.877,-14.123Z" style="fill:#406ca4;"/><path d="M186.144,120.325l-14.123,-12.877l-12.876,14.123l14.122,12.877l12.877,-14.123Z" style="fill:none;stroke:#3d6ca4;stroke-width:0.1px;stroke-linecap:round;stroke-linejoin:round;stroke-miterlimit:5;"/><path d="M170.775,80.449l-14.123,-12.877l-12.876,14.123l14.122,12.877l12.877,-14.123Z" style="fill:#2a558f;fill-opacity:0;"/><path d="M170.775,80.449l-14.123,-12.877l-12.876,14.123l14.122,12.877l12.877,-14.123Z" style="fill:#fff;"/><path d="M170.775,80.449l-14.123,-12.877l-12.876,14.123l14.122,12.877l12.877,-14.123Z" style="fill:none;stroke:#3d6ca4;stroke-width:0.1px;stroke-linecap:round;stroke-linejoin:round;stroke-miterlimit:5;"/><path d="M160.291,63.637c1.333,-1.461 1.228,-3.729 -0.234,-5.062l-5.296,-4.829c-1.461,-1.332 -3.73,-1.227 -5.062,0.234l-108.674,119.19c-1.332,1.462 -1.228,3.73 0.234,5.063l5.296,4.828c1.461,1.333 3.73,1.228 5.062,-0.233l108.674,-119.191Z" style="fill:#406ca4;fill-opacity:0;"/><path d="M160.291,63.637c1.333,-1.461 1.228,-3.729 -0.234,-5.062l-5.296,-4.829c-1.461,-1.332 -3.73,-1.227 -5.062,0.234l-108.674,119.19c-1.332,1.462 -1.228,3.73 0.234,5.063l5.296,4.828c1.461,1.333 3.73,1.228 5.062,-0.233l108.674,-119.191Z" style="fill:#406ca4;"/><path d="M160.291,63.637c1.333,-1.461 1.228,-3.729 -0.234,-5.062l-5.296,-4.829c-1.461,-1.332 -3.73,-1.227 -5.062,0.234l-108.674,119.19c-1.332,1.462 -1.228,3.73 0.234,5.063l5.296,4.828c1.461,1.333 3.73,1.228 5.062,-0.233l108.674,-119.191Z" style="fill:none;stroke:#3d6ca4;stroke-width:0.1px;stroke-linecap:round;stroke-linejoin:round;stroke-miterlimit:5;"/><path d="M209.189,115.473c2.183,1.99 2.339,5.378 0.349,7.56l-9.271,10.169l-14.123,-12.877l12.877,-14.123l10.168,9.271Z" style="fill:#406ca4;fill-opacity:0;"/><path d="M209.189,115.473c2.183,1.99 2.339,5.378 0.349,7.56l-9.271,10.169l-14.123,-12.877l12.877,-14.123l10.168,9.271Z" style="fill:#406ca4;"/><path d="M209.189,115.473c2.183,1.99 2.339,5.378 0.349,7.56l-9.271,10.169l-14.123,-12.877l12.877,-14.123l10.168,9.271Z" style="fill:none;stroke:#3d6ca4;stroke-width:0.1px;stroke-linecap:round;stroke-linejoin:round;stroke-miterlimit:5;"/><path d="M200.267,133.202l-14.123,-12.877l-12.877,14.123l14.123,12.876l12.877,-14.122Z" style="fill:#406ca4;fill-opacity:0;"/><path d="M200.267,133.202l-14.123,-12.877l-12.877,14.123l14.123,12.876l12.877,-14.122Z" style="fill:#fff;"/><path d="M200.267,133.202l-14.123,-12.877l-12.877,14.123l14.123,12.876l12.877,-14.122Z" style="fill:none;stroke:#3d6ca4;stroke-width:0.1px;stroke-linecap:round;stroke-linejoin:round;stroke-miterlimit:5;"/><path d="M187.39,147.324l-14.123,-12.876l-12.876,14.123l14.122,12.876l12.877,-14.123Z" style="fill:#406ca4;fill-opacity:0;stroke:#3d6ca4;stroke-width:0.1px;stroke-linecap:round;stroke-linejoin:round;stroke-miterlimit:5;"/><path d="M165.242,171.616l9.271,-10.169l-14.122,-12.876l-12.877,14.122l10.168,9.272c2.183,1.989 5.57,1.833 7.56,-0.349Z" style="fill:#406ca4;fill-opacity:0;"/><path d="M165.242,171.616l9.271,-10.169l-14.122,-12.876l-12.877,14.122l10.168,9.272c2.183,1.989 5.57,1.833 7.56,-0.349Z" style="fill:#fff;"/><path d="M165.242,171.616l9.271,-10.169l-14.122,-12.876l-12.877,14.122l10.168,9.272c2.183,1.989 5.57,1.833 7.56,-0.349Z" style="fill:none;stroke:#3d6ca4;stroke-width:0.1px;stroke-linecap:round;stroke-linejoin:round;stroke-miterlimit:5;"/><path d="M160.391,148.571l-14.123,-12.877l-12.877,14.123l14.123,12.876l12.877,-14.122Z" style="fill:#406ca4;fill-opacity:0;stroke:#3d6ca4;stroke-width:0.1px;stroke-linecap:round;stroke-linejoin:round;stroke-miterlimit:5;"/><path d="M172.021,107.448l-14.123,-12.876l-12.876,14.122l14.123,12.877l12.876,-14.123Z" style="fill:#406ca4;fill-opacity:0;"/><path d="M172.021,107.448l-14.123,-12.876l-12.876,14.122l14.123,12.877l12.876,-14.123Z" style="fill:#fff;"/><path d="M172.021,107.448l-14.123,-12.876l-12.876,14.122l14.123,12.877l12.876,-14.123Z" style="fill:none;stroke:#3d6ca4;stroke-width:0.1px;stroke-linecap:round;stroke-linejoin:round;stroke-miterlimit:5;"/><path d="M159.145,121.571l-14.123,-12.877l-12.877,14.123l14.123,12.877l12.877,-14.123Z" style="fill:#406ca4;fill-opacity:0;stroke:#3d6ca4;stroke-width:0.1px;stroke-linecap:round;stroke-linejoin:round;stroke-miterlimit:5;"/><path d="M146.268,135.694l-14.123,-12.877l-12.877,14.123l14.123,12.877l12.877,-14.123Z" style="fill:#406ca4;fill-opacity:0;"/><path d="M146.268,135.694l-14.123,-12.877l-12.877,14.123l14.123,12.877l12.877,-14.123Z" style="fill:#fff;"/><path d="M146.268,135.694l-14.123,-12.877l-12.877,14.123l14.123,12.877l12.877,-14.123Z" style="fill:none;stroke:#3d6ca4;stroke-width:0.1px;stroke-linecap:round;stroke-linejoin:round;stroke-miterlimit:5;"/><path d="M132.145,122.817l-14.123,-12.876l-12.876,14.122l14.122,12.877l12.877,-14.123Z" style="fill:#406ca4;fill-opacity:0;stroke:#3d6ca4;stroke-width:0.1px;stroke-linecap:round;stroke-linejoin:round;stroke-miterlimit:5;"/><path d="M145.022,108.694l-14.123,-12.876l-12.877,14.123l14.123,12.876l12.877,-14.123Z" style="fill:#406ca4;fill-opacity:0;"/><path d="M145.022,108.694l-14.123,-12.876l-12.877,14.123l14.123,12.876l12.877,-14.123Z" style="fill:#fff;"/><path d="M145.022,108.694l-14.123,-12.876l-12.877,14.123l14.123,12.876l12.877,-14.123Z" style="fill:none;stroke:#3d6ca4;stroke-width:0.1px;stroke-linecap:round;stroke-linejoin:round;stroke-miterlimit:5;"/><path d="M159.145,121.571l-14.123,-12.877l-12.877,14.123l14.123,12.877l12.877,-14.123Z" style="fill:#406ca4;fill-opacity:0;"/><path d="M159.145,121.571l-14.123,-12.877l-12.877,14.123l14.123,12.877l12.877,-14.123Z" style="fill:#406ca4;"/><path d="M159.145,121.571l-14.123,-12.877l-12.877,14.123l14.123,12.877l12.877,-14.123Z" style="fill:none;stroke:#3d6ca4;stroke-width:0.1px;stroke-linecap:round;stroke-linejoin:round;stroke-miterlimit:5;"/><path d="M187.39,147.324l-14.123,-12.876l-12.876,14.123l14.122,12.876l12.877,-14.123Z" style="fill:#406ca4;fill-opacity:0;"/><path d="M187.39,147.324l-14.123,-12.876l-12.876,14.123l14.122,12.876l12.877,-14.123Z" style="fill:#406ca4;"/><path d="M187.39,147.324l-14.123,-12.876l-12.876,14.123l14.122,12.876l12.877,-14.123Z" style="fill:none;stroke:#3d6ca4;stroke-width:0.1px;stroke-linecap:round;stroke-linejoin:round;stroke-miterlimit:5;"/><path d="M132.145,122.817l-14.123,-12.876l-12.876,14.122l14.122,12.877l12.877,-14.123Z" style="fill:#406ca4;fill-opacity:0;"/><path d="M132.145,122.817l-14.123,-12.876l-12.876,14.122l14.122,12.877l12.877,-14.123Z" style="fill:#406ca4;"/><path d="M132.145,122.817l-14.123,-12.876l-12.876,14.122l14.122,12.877l12.877,-14.123Z" style="fill:none;stroke:#3d6ca4;stroke-width:0.1px;stroke-linecap:round;stroke-linejoin:round;stroke-miterlimit:5;"/><path d="M160.391,148.571l-14.123,-12.877l-12.877,14.123l14.123,12.876l12.877,-14.122Z" style="fill:#406ca4;fill-opacity:0;"/><path d="M160.391,148.571l-14.123,-12.877l-12.877,14.123l14.123,12.876l12.877,-14.122Z" style="fill:#406ca4;"/><path d="M160.391,148.571l-14.123,-12.877l-12.877,14.123l14.123,12.876l12.877,-14.122Z" style="fill:none;stroke:#3d6ca4;stroke-width:0.1px;stroke-linecap:round;stroke-linejoin:round;stroke-miterlimit:5;"/><path d="M157.682,171.965l-53.85,-49.1c-2.183,-1.989 -2.339,-5.377 -0.349,-7.559l44.296,-48.583c1.99,-2.182 5.377,-2.339 7.56,-0.349l53.85,49.099c2.183,1.99 2.339,5.378 0.349,7.56l-44.296,48.583c-1.99,2.182 -5.377,2.338 -7.56,0.349Z" style="fill:none;stroke:#3d6ca4;stroke-width:1px;stroke-linecap:round;stroke-linejoin:round;stroke-miterlimit:5;"/></svg>