<?xml version="1.0" encoding="UTF-8" standalone="no"?><!DOCTYPE svg PUBLIC "-//W3C//DTD SVG 1.1//EN" "http://www.w3.org/Graphics/SVG/1.1/DTD/svg11.dtd"><svg width="100%" height="100%" viewBox="0 0 55 55" version="1.1" xmlns="http://www.w3.org/2000/svg" xmlns:xlink="http://www.w3.org/1999/xlink" xml:space="preserve" xmlns:serif="http://www.serif.com/" style="fill-rule:evenodd;clip-rule:evenodd;"><g id="picto-ski-de-fond" serif:id="picto ski de fond"></g><rect id="Plan-de-travail1" serif:id="Plan de travail1" x="-566.844" y="-9.939" width="821.5" height="213.182" style="fill:none;"/><g id="Layer-1" serif:id="Layer 1"></g><g id="chornometre"></g><g id="Parcours_Blanc"><g><path d="M2.921,4.558l0,45.872c0,0.904 0.733,1.638 1.638,1.638l45.872,-0c0.904,-0 1.637,-0.734 1.637,-1.638l-0,-45.872c-0,-0.904 -0.733,-1.637 -1.637,-1.637l-45.872,0c-0.905,0 -1.638,0.733 -1.638,1.637Z" style="fill:#2e3092;fill-opacity:0;stroke:#406ca4;stroke-width:1.42px;"/><path d="M25.853,13.287c-0,0.929 -0.755,1.685 -1.685,1.685c-0.928,-0 -1.68,-0.756 -1.68,-1.685c0,-0.93 0.752,-1.689 1.68,-1.689c0.93,-0 1.685,0.759 1.685,1.689" style="fill:#2d558f;"/><path d="M13.561,4.872c-0.403,0.38 -0.427,1.015 -0.05,1.416l10.196,10.943c0.19,0.198 0.456,0.313 0.736,0.313l4.445,-0c0.559,-0 1.006,-0.448 1.006,-1.005c0,-0.552 -0.447,-0.999 -1.006,-0.999l-4.009,0c-0.564,-0.595 -9.898,-10.618 -9.898,-10.618c-0.377,-0.406 -1.009,-0.43 -1.42,-0.05" style="fill:#406ca4;"/><path d="M15.567,11.549c-0.376,0.159 -0.622,0.527 -0.622,0.927l0,4.354l-4.776,-0c-0.556,-0 -1,0.456 -1,1.008c-0,0.558 0.444,1.002 1,1.002l5.781,0c0.555,0 1.005,-0.444 1.005,-1.002l-0,-2.939c1.025,1.022 1.664,1.667 2.161,2.165c-0.692,0.992 -2.724,3.906 -2.724,3.906c-0.124,0.179 -0.183,0.377 -0.183,0.575c-0,0.317 0.151,0.624 0.427,0.826c0.455,0.314 1.079,0.205 1.394,-0.25l3.215,-4.596c0.277,-0.401 0.226,-0.942 -0.117,-1.287l-4.47,-4.474c-0.286,-0.283 -0.717,-0.371 -1.091,-0.215" style="fill:#406ca4;"/><path d="M18.953,23.709c-0,0.493 -0.396,0.892 -0.887,0.892c-0.493,0 -0.889,-0.399 -0.889,-0.892c0,-0.486 0.396,-0.887 0.889,-0.887c0.491,-0 0.887,0.401 0.887,0.887" style="fill:#406ca4;"/><path d="M16.845,23.709c-0,0.493 -0.396,0.892 -0.89,0.892c-0.491,0 -0.89,-0.399 -0.89,-0.892c0,-0.486 0.399,-0.887 0.89,-0.887c0.494,-0 0.89,0.401 0.89,0.887" style="fill:#406ca4;"/><path d="M14.737,23.709c0,0.493 -0.395,0.892 -0.886,0.892c-0.493,0 -0.889,-0.399 -0.889,-0.892c-0,-0.486 0.396,-0.887 0.889,-0.887c0.491,-0 0.886,0.401 0.886,0.887" style="fill:#406ca4;"/><path d="M8.144,14.129c0.493,-0 0.891,0.397 0.891,0.888c-0,0.492 -0.398,0.887 -0.891,0.887c-0.491,0 -0.889,-0.395 -0.889,-0.887c-0,-0.491 0.398,-0.888 0.889,-0.888" style="fill:#406ca4;"/><path d="M8.144,16.233c0.493,-0 0.891,0.399 0.891,0.891c-0,0.493 -0.398,0.888 -0.891,0.888c-0.491,0 -0.889,-0.395 -0.889,-0.888c-0,-0.492 0.398,-0.891 0.889,-0.891" style="fill:#406ca4;"/><path d="M8.144,18.337c0.493,-0 0.891,0.399 0.891,0.894c-0,0.487 -0.398,0.889 -0.891,0.889c-0.491,0 -0.889,-0.402 -0.889,-0.889c-0,-0.495 0.398,-0.894 0.889,-0.894" style="fill:#406ca4;"/><path d="M44.377,7.882c0,0.889 -0.716,1.6 -1.597,1.6c-0.885,-0 -1.605,-0.711 -1.605,-1.6c-0,-0.884 0.72,-1.601 1.605,-1.601c0.881,0 1.597,0.717 1.597,1.601" style="fill:#406ca4;"/><path d="M46.589,15.359c0.528,-0.027 0.929,-0.478 0.903,-1.004c-0.029,-0.526 -0.478,-0.932 -1.004,-0.901c0,0 -2.326,0.126 -3.584,0.196c0.236,-1.219 0.447,-2.313 0.447,-2.313c0.013,-0.062 0.018,-0.122 0.018,-0.187c0,-0.443 -0.31,-0.844 -0.771,-0.933c-0.162,-0.03 -0.326,-0.004 -0.476,0.044c-0.51,0.15 -4.166,1.29 -4.166,1.29c-0.323,0.109 -0.572,0.385 -0.639,0.722l-0.725,3.569c-0.102,0.512 0.233,1.017 0.751,1.121c0.514,0.109 1.018,-0.228 1.122,-0.747c0,-0 0.452,-2.232 0.612,-3.017c0.402,-0.129 0.873,-0.278 1.526,-0.49c-0.43,2.361 -1.171,6.401 -1.281,7c-0.744,0.363 -5.331,2.595 -5.331,2.595c-0.337,0.17 -0.537,0.509 -0.537,0.862c-0,0.138 0.029,0.278 0.095,0.415c0.234,0.474 0.804,0.672 1.279,0.439l5.768,-2.808c0.269,-0.138 0.463,-0.389 0.516,-0.687l0.387,-2.105c1.017,0.711 2.737,1.912 3.337,2.326c-0.291,0.99 -1.253,4.314 -1.253,4.314c-0.028,0.093 -0.039,0.181 -0.039,0.266c-0,0.413 0.272,0.797 0.687,0.916c0.506,0.149 1.038,-0.142 1.183,-0.648l1.44,-4.975c0.028,-0.089 0.039,-0.177 0.039,-0.269c-0,-0.303 -0.143,-0.599 -0.406,-0.774c0,0 -3.367,-2.352 -4.176,-2.915c0.043,-0.222 0.118,-0.614 0.21,-1.084l4.068,-0.218Z" style="fill:#406ca4;"/><path d="M18.273,37.415c0,1.002 -0.811,1.819 -1.816,1.819c-1.007,-0 -1.822,-0.817 -1.822,-1.819c-0,-1.003 0.815,-1.819 1.822,-1.819c1.005,-0 1.816,0.816 1.816,1.819" style="fill:#406ca4;"/><path d="M2.921,37.29c0.108,-0.005 0.174,-0.009 0.181,-0.011l6.385,-0.79l4.128,-4.034c0.278,-0.267 0.667,-0.368 1.029,-0.275l6.49,1.675c0.575,0.151 0.93,0.738 0.773,1.32c-0.144,0.579 -0.735,0.925 -1.311,0.778c0,0 -4.919,-1.272 -5.902,-1.521c-0.304,0.302 -1.475,1.443 -2.777,2.714l1.465,0.92c0.348,0.222 0.515,0.597 0.483,0.974c0.58,0.139 0.997,0.349 1.343,0.544c0.43,0.238 0.706,0.396 1.363,0.396c0.682,0 1.032,-0.177 1.524,-0.419c0.584,-0.295 1.306,-0.653 2.532,-0.653l1.633,0.238c0.595,0.082 0.857,0.594 0.767,1.197c-0.083,0.586 -0.785,0.959 -1.382,0.877l-1.018,-0.141c-0.715,-0 -1.073,0.172 -1.568,0.421c-0.574,0.287 -1.296,0.646 -2.488,0.646c-1.216,0 -1.881,-0.368 -2.417,-0.669c-0.441,-0.243 -0.724,-0.398 -1.412,-0.398c-0.836,-0 -1.55,0.252 -2.3,0.522c-0.739,0.269 -1.509,0.545 -2.385,0.545c-0.787,0 -1.301,-0.226 -1.796,-0.442c-0.611,-0.27 -1.375,-0.6 -3.34,-0.624l0,-3.79Z" style="fill:#406ca4;"/><path d="M30.942,44.14c-0.444,-0.44 -0.687,-1.028 -0.687,-1.658c-0,-0.623 0.243,-1.209 0.687,-1.655c0.438,-0.44 1.032,-0.685 1.654,-0.685c1.294,0 2.346,1.051 2.346,2.34c0,1.291 -1.052,2.343 -2.346,2.348c-0.622,-0 -1.213,-0.248 -1.654,-0.69m-1.275,-4.582c-0.781,0.782 -1.213,1.821 -1.213,2.928c0,1.105 0.432,2.144 1.216,2.925c0.783,0.783 1.822,1.212 2.926,1.212c2.289,-0 4.138,-1.861 4.138,-4.141c0.006,-2.282 -1.849,-4.138 -4.138,-4.138c-1.107,0 -2.146,0.432 -2.929,1.214" style="fill:#406ca4;"/><path d="M42.657,44.136c-0.444,-0.439 -0.687,-1.03 -0.686,-1.65c-0.001,-0.631 0.242,-1.218 0.686,-1.659c0.441,-0.446 1.03,-0.685 1.653,-0.685c1.289,0 2.346,1.051 2.346,2.339c0,1.296 -1.053,2.349 -2.346,2.349c-0.623,-0 -1.212,-0.248 -1.653,-0.694m-1.275,-4.579c-0.781,0.782 -1.208,1.822 -1.208,2.929c0,1.099 0.427,2.142 1.208,2.925c0.784,0.783 1.819,1.212 2.928,1.212c2.287,0.001 4.143,-1.852 4.144,-4.137l0,-0.005c0,-2.281 -1.857,-4.137 -4.144,-4.141c-1.109,0 -2.144,0.433 -2.928,1.217" style="fill:#406ca4;"/><path d="M38.226,39.564c-0.216,0.261 -0.544,0.639 -0.892,1.05l0,-1.973c0.338,0.346 0.665,0.684 0.892,0.923m5.142,-2.679l-2.723,-4.183c-0.144,-0.218 -0.372,-0.369 -0.633,-0.4c-0.26,-0.039 -0.525,0.045 -0.72,0.22l-3.515,3.168c-0.174,0.164 -0.284,0.395 -0.292,0.635l0,0.032c0,0.121 0.054,0.401 0.054,0.432l0,5.969c-0.11,0.153 -0.171,0.33 -0.171,0.503c-0,0.179 0.071,0.343 0.171,0.491l0,1.464c0,0.493 0.405,0.9 0.905,0.9c0.491,0 0.89,-0.407 0.89,-0.9l0,-1.823l2.789,-3.285c0.147,-0.168 0.213,-0.374 0.213,-0.582c0,-0.227 -0.083,-0.451 -0.248,-0.626c-0,0 -1.613,-1.665 -2.416,-2.498c0.648,-0.583 1.333,-1.202 2.038,-1.841c0.714,1.102 2.145,3.304 2.145,3.304c0.271,0.413 0.828,0.535 1.245,0.264c0.414,-0.272 0.536,-0.827 0.268,-1.244" style="fill:#406ca4;"/><path d="M44.205,31.639c-0,0.834 -0.678,1.508 -1.512,1.508c-0.835,0 -1.509,-0.674 -1.509,-1.508c0,-0.834 0.674,-1.512 1.509,-1.512c0.834,-0 1.512,0.678 1.512,1.512" style="fill:#406ca4;"/></g></g><g id="Depart_Blanc"></g></svg>