<?xml version="1.0" encoding="UTF-8" standalone="no"?>
<!DOCTYPE svg PUBLIC "-//W3C//DTD SVG 1.1//EN" "http://www.w3.org/Graphics/SVG/1.1/DTD/svg11.dtd">
<svg width="100%" height="100%" viewBox="0 0 56 56" version="1.1" xmlns="http://www.w3.org/2000/svg" xmlns:xlink="http://www.w3.org/1999/xlink" xml:space="preserve" xmlns:serif="http://www.serif.com/" style="fill-rule:evenodd;clip-rule:evenodd;">
    <g transform="matrix(1,0,0,1,0.00640499,0.00640499)">
        <path d="M2.921,50.431L2.921,4.558C2.921,3.654 3.654,2.921 4.558,2.921L50.43,2.921C51.335,2.921 52.067,3.654 52.067,4.558L52.067,50.431C52.067,51.335 51.335,52.068 50.43,52.068L4.558,52.068C3.654,52.068 2.921,51.335 2.921,50.431Z" style="fill:white;"/>
        <path d="M2.921,50.431C2.921,51.335 3.654,52.068 4.558,52.068L50.43,52.068C51.335,52.068 52.067,51.335 52.067,50.431L52.067,4.558C52.067,3.654 51.335,2.921 50.43,2.921L4.558,2.921C3.654,2.921 2.921,3.654 2.921,4.558L2.921,50.431Z" style="fill:rgb(46,48,146);fill-opacity:0;stroke:rgb(64,108,164);stroke-width:1.42px;"/>
        <g transform="matrix(6.53369,0,0,6.53369,4.46403,3.46085)">
            <path d="M4.359,1.389C4.359,1.631 4.164,1.825 3.924,1.825C3.682,1.825 3.486,1.631 3.486,1.389C3.486,1.148 3.682,0.953 3.924,0.953C4.164,0.953 4.359,1.148 4.359,1.389" style="fill:rgb(61,108,164);"/>
        </g>
        <g transform="matrix(6.53369,0,0,6.53369,4.46403,3.46085)">
            <path d="M4.962,3.427C5.106,3.42 5.215,3.297 5.208,3.153C5.2,3.01 5.078,2.899 4.934,2.908C4.934,2.908 4.3,2.942 3.957,2.961C4.022,2.629 4.079,2.331 4.079,2.331C4.083,2.314 4.084,2.298 4.084,2.28C4.084,2.159 4,2.05 3.874,2.026C3.83,2.017 3.785,2.024 3.744,2.037C3.605,2.078 2.609,2.389 2.609,2.389C2.521,2.419 2.453,2.494 2.435,2.586L2.237,3.558C2.209,3.698 2.3,3.836 2.441,3.864C2.582,3.894 2.719,3.802 2.747,3.66C2.747,3.66 2.871,3.052 2.914,2.838C3.024,2.803 3.152,2.762 3.33,2.705C3.213,3.348 3.011,4.449 2.981,4.613C2.778,4.712 1.528,5.32 1.528,5.32C1.436,5.366 1.382,5.459 1.382,5.555C1.382,5.593 1.389,5.631 1.408,5.668C1.471,5.797 1.627,5.851 1.756,5.788L3.328,5.022C3.402,4.985 3.454,4.916 3.469,4.835L3.575,4.261C3.852,4.455 4.32,4.782 4.484,4.895C4.405,5.165 4.142,6.071 4.142,6.071C4.135,6.096 4.132,6.12 4.132,6.144C4.132,6.256 4.206,6.361 4.319,6.393C4.457,6.434 4.602,6.355 4.641,6.217L5.034,4.861C5.042,4.836 5.045,4.812 5.045,4.787C5.045,4.705 5.005,4.624 4.934,4.576C4.934,4.576 4.016,3.935 3.796,3.782C3.807,3.721 3.828,3.615 3.853,3.486L4.962,3.427Z" style="fill:rgb(61,108,164);"/>
        </g>
    </g>
</svg>
