<?xml version="1.0" encoding="UTF-8" standalone="no"?>
<!DOCTYPE svg PUBLIC "-//W3C//DTD SVG 1.1//EN" "http://www.w3.org/Graphics/SVG/1.1/DTD/svg11.dtd">
<svg width="100%" height="100%" viewBox="0 0 56 56" version="1.1" xmlns="http://www.w3.org/2000/svg" xmlns:xlink="http://www.w3.org/1999/xlink" xml:space="preserve" xmlns:serif="http://www.serif.com/" style="fill-rule:evenodd;clip-rule:evenodd;">
    <g transform="matrix(1,0,0,1,0.00640499,0.00640499)">
        <path d="M2.921,50.431L2.921,4.558C2.921,3.654 3.654,2.921 4.558,2.921L50.43,2.921C51.335,2.921 52.067,3.654 52.067,4.558L52.067,50.431C52.067,51.335 51.335,52.068 50.43,52.068L4.558,52.068C3.654,52.068 2.921,51.335 2.921,50.431Z" style="fill:white;"/>
        <path d="M2.921,50.431C2.921,51.335 3.654,52.068 4.558,52.068L50.43,52.068C51.335,52.068 52.067,51.335 52.067,50.431L52.067,4.558C52.067,3.654 51.335,2.921 50.43,2.921L4.558,2.921C3.654,2.921 2.921,3.654 2.921,4.558L2.921,50.431Z" style="fill:rgb(46,48,146);fill-opacity:0;stroke:rgb(64,108,164);stroke-width:1.42px;"/>
        <path d="M14.733,38.14C13.939,37.355 13.504,36.302 13.504,35.176C13.504,34.063 13.939,33.015 14.733,32.217C15.515,31.431 16.577,30.994 17.69,30.994C20.003,30.994 21.884,32.872 21.884,35.176C21.884,37.484 20.003,39.366 17.69,39.373C16.577,39.373 15.522,38.931 14.733,38.14M12.454,29.949C11.057,31.347 10.286,33.205 10.286,35.184C10.286,37.16 11.057,39.016 12.459,40.412C13.859,41.813 15.716,42.579 17.69,42.579C21.782,42.579 25.087,39.252 25.087,35.176C25.097,31.098 21.782,27.78 17.69,27.78C15.71,27.78 13.853,28.552 12.454,29.949" style="fill:rgb(64,108,164);"/>
        <path d="M35.675,38.134C34.881,37.348 34.447,36.292 34.449,35.184C34.447,34.056 34.881,33.007 35.675,32.217C36.462,31.421 37.515,30.994 38.629,30.994C40.934,30.994 42.824,32.873 42.824,35.175C42.824,37.492 40.94,39.373 38.629,39.373C37.515,39.373 36.462,38.931 35.675,38.134M33.395,29.948C32,31.346 31.236,33.205 31.236,35.184C31.236,37.148 32,39.013 33.395,40.412C34.796,41.813 36.647,42.578 38.629,42.578C42.718,42.581 46.035,39.269 46.038,35.184L46.038,35.175C46.038,31.098 42.718,27.78 38.629,27.773C36.647,27.773 34.796,28.546 33.395,29.948" style="fill:rgb(64,108,164);"/>
        <path d="M27.754,29.96C27.367,30.428 26.781,31.103 26.16,31.837L26.16,28.31C26.764,28.93 27.348,29.534 27.754,29.96M36.945,25.172L32.078,17.693C31.82,17.303 31.413,17.033 30.946,16.978C30.482,16.908 30.007,17.06 29.659,17.371L23.376,23.034C23.064,23.328 22.869,23.74 22.854,24.171L22.854,24.227C22.854,24.443 22.951,24.944 22.951,24.999L22.951,35.669C22.754,35.943 22.644,36.259 22.644,36.57C22.644,36.89 22.771,37.183 22.951,37.447L22.951,40.063C22.951,40.944 23.674,41.673 24.568,41.673C25.445,41.673 26.16,40.944 26.16,40.063L26.16,36.804L31.145,30.934C31.407,30.632 31.526,30.263 31.526,29.893C31.526,29.487 31.377,29.087 31.082,28.773C31.082,28.773 28.198,25.797 26.764,24.307C27.922,23.265 29.146,22.159 30.406,21.017C31.682,22.988 34.24,26.923 34.24,26.923C34.726,27.662 35.721,27.88 36.467,27.394C37.207,26.91 37.424,25.916 36.945,25.172" style="fill:rgb(64,108,164);"/>
        <path d="M38.441,15.794C38.441,17.285 37.23,18.49 35.739,18.49C34.246,18.49 33.042,17.285 33.042,15.794C33.042,14.302 34.246,13.09 35.739,13.09C37.23,13.09 38.441,14.302 38.441,15.794" style="fill:rgb(64,108,164);"/>
    </g>
</svg>
