<?xml version="1.0" encoding="UTF-8" standalone="no"?>
<!DOCTYPE svg PUBLIC "-//W3C//DTD SVG 1.1//EN" "http://www.w3.org/Graphics/SVG/1.1/DTD/svg11.dtd">
<svg width="100%" height="100%" viewBox="0 0 55 55" version="1.1" xmlns="http://www.w3.org/2000/svg" xmlns:xlink="http://www.w3.org/1999/xlink" xml:space="preserve" xmlns:serif="http://www.serif.com/" style="fill-rule:evenodd;clip-rule:evenodd;">
    <g id="Parcours_Blanc">
        <g>
            <path d="M2.921,4.558C2.921,3.654 3.654,2.921 4.559,2.921L50.431,2.921C51.335,2.921 52.068,3.654 52.068,4.558L52.068,50.43C52.068,51.334 51.335,52.068 50.431,52.068L4.559,52.068C3.654,52.068 2.921,51.334 2.921,50.43L2.921,4.558Z" style="fill:white;"/>
            <path d="M2.921,4.558L2.921,50.43C2.921,51.334 3.654,52.068 4.559,52.068L50.431,52.068C51.335,52.068 52.068,51.334 52.068,50.43L52.068,4.558C52.068,3.654 51.335,2.921 50.431,2.921L4.559,2.921C3.654,2.921 2.921,3.654 2.921,4.558Z" style="fill:rgb(46,48,146);fill-opacity:0;stroke:rgb(64,108,164);stroke-width:1.42px;"/>
            <path d="M47.257,17.482C47.257,18.371 46.541,19.082 45.66,19.082C44.775,19.082 44.055,18.371 44.055,17.482C44.055,16.598 44.775,15.881 45.66,15.881C46.541,15.881 47.257,16.598 47.257,17.482" style="fill:rgb(64,108,164);"/>
            <path d="M49.469,24.959C49.997,24.932 50.398,24.481 50.372,23.955C50.343,23.429 49.894,23.023 49.368,23.054C49.368,23.054 47.042,23.18 45.784,23.25C46.02,22.031 46.231,20.937 46.231,20.937C46.244,20.875 46.249,20.815 46.249,20.75C46.249,20.307 45.939,19.906 45.478,19.817C45.316,19.787 45.152,19.813 45.002,19.861C44.492,20.011 40.836,21.151 40.836,21.151C40.513,21.26 40.264,21.536 40.197,21.873L39.472,25.442C39.37,25.954 39.705,26.459 40.223,26.563C40.737,26.672 41.241,26.335 41.345,25.816C41.345,25.816 41.797,23.584 41.957,22.799C42.359,22.67 42.83,22.521 43.483,22.309C43.053,24.67 42.312,28.71 42.202,29.309C41.458,29.672 36.871,31.904 36.871,31.904C36.534,32.074 36.334,32.413 36.334,32.766C36.334,32.904 36.363,33.044 36.429,33.181C36.663,33.655 37.233,33.853 37.708,33.62L43.476,30.812C43.745,30.674 43.939,30.423 43.992,30.125L44.379,28.02C45.396,28.731 47.116,29.932 47.716,30.346C47.425,31.336 46.463,34.66 46.463,34.66C46.435,34.753 46.424,34.841 46.424,34.926C46.424,35.339 46.696,35.723 47.111,35.842C47.617,35.991 48.149,35.7 48.294,35.194L49.734,30.219C49.762,30.13 49.773,30.042 49.773,29.95C49.773,29.647 49.63,29.351 49.367,29.176C49.367,29.176 46,26.824 45.191,26.261C45.234,26.039 45.309,25.647 45.401,25.177L49.469,24.959Z" style="fill:rgb(64,108,164);"/>
            <path d="M14.913,25.895C14.913,26.897 14.102,27.714 13.097,27.714C12.09,27.714 11.275,26.897 11.275,25.895C11.275,24.892 12.09,24.076 13.097,24.076C14.102,24.076 14.913,24.892 14.913,25.895" style="fill:rgb(64,108,164);"/>
            <path d="M2.921,25.366L6.127,24.969L10.255,20.935C10.533,20.668 10.922,20.567 11.284,20.66L17.774,22.335C18.349,22.486 18.704,23.073 18.547,23.655C18.403,24.234 17.812,24.58 17.236,24.433C17.236,24.433 12.317,23.161 11.334,22.912C11.03,23.214 9.859,24.355 8.557,25.626L10.022,26.546C10.37,26.768 10.537,27.143 10.505,27.52C11.085,27.659 11.502,27.869 11.848,28.064C12.278,28.302 12.554,28.46 13.211,28.46C13.893,28.46 14.243,28.283 14.735,28.041C15.319,27.746 16.041,27.388 17.267,27.388L18.9,27.626C19.128,27.657 19.307,27.752 19.436,27.89C19.644,28.113 19.723,28.451 19.667,28.823C19.637,29.033 19.527,29.216 19.371,29.361C19.093,29.618 18.667,29.752 18.285,29.7L17.267,29.559C16.552,29.559 16.194,29.731 15.699,29.98C15.125,30.267 14.403,30.626 13.211,30.626C11.995,30.626 11.33,30.258 10.794,29.957C10.353,29.714 10.07,29.559 9.382,29.559C8.546,29.559 7.832,29.811 7.082,30.081C6.343,30.35 5.573,30.626 4.697,30.626C3.921,30.626 3.411,30.407 2.921,30.193L2.921,25.366Z" style="fill:rgb(64,108,164);"/>
            <path d="M21.822,30.46C21.378,30.02 21.135,29.432 21.135,28.802C21.135,28.179 21.378,27.593 21.822,27.147C22.26,26.707 22.854,26.462 23.476,26.462C24.77,26.462 25.822,27.513 25.822,28.802C25.822,30.093 24.77,31.145 23.476,31.15C22.854,31.15 22.263,30.902 21.822,30.46M20.547,25.878C19.766,26.66 19.334,27.699 19.334,28.806C19.334,29.911 19.766,30.95 20.55,31.731C21.333,32.514 22.372,32.943 23.476,32.943C25.765,32.943 27.614,31.082 27.614,28.802C27.62,26.52 25.765,24.664 23.476,24.664C22.369,24.664 21.33,25.096 20.547,25.878" style="fill:rgb(64,108,164);"/>
            <path d="M33.537,30.456C33.093,30.017 32.85,29.426 32.851,28.806C32.85,28.175 33.093,27.588 33.537,27.147C33.978,26.701 34.567,26.462 35.19,26.462C36.479,26.462 37.536,27.513 37.536,28.801C37.536,30.097 36.483,31.15 35.19,31.15C34.567,31.15 33.978,30.902 33.537,30.456M32.262,25.877C31.481,26.659 31.054,27.699 31.054,28.806C31.054,29.905 31.481,30.948 32.262,31.731C33.046,32.514 34.081,32.943 35.19,32.943C37.477,32.944 39.333,31.091 39.334,28.806L39.334,28.801C39.334,26.52 37.477,24.664 35.19,24.66C34.081,24.66 33.046,25.093 32.262,25.877" style="fill:rgb(64,108,164);"/>
            <path d="M29.106,25.884C28.89,26.145 28.562,26.523 28.214,26.934L28.214,24.961C28.552,25.307 28.879,25.645 29.106,25.884M34.248,23.205L31.525,19.022C31.381,18.804 31.153,18.653 30.892,18.622C30.632,18.583 30.367,18.667 30.172,18.842L26.657,22.01C26.483,22.174 26.373,22.405 26.365,22.645L26.365,22.677C26.365,22.798 26.419,23.078 26.419,23.109L26.419,29.078C26.309,29.231 26.248,29.408 26.248,29.581C26.248,29.76 26.319,29.924 26.419,30.072L26.419,31.536C26.419,32.029 26.824,32.436 27.324,32.436C27.815,32.436 28.214,32.029 28.214,31.536L28.214,29.713L31.003,26.428C31.15,26.26 31.216,26.054 31.216,25.846C31.216,25.619 31.133,25.395 30.968,25.22C30.968,25.22 29.355,23.555 28.552,22.722C29.2,22.139 29.885,21.52 30.59,20.881C31.304,21.983 32.735,24.185 32.735,24.185C33.006,24.598 33.563,24.72 33.98,24.449C34.394,24.177 34.516,23.622 34.248,23.205" style="fill:rgb(64,108,164);"/>
            <path d="M35.085,17.959C35.085,18.793 34.407,19.467 33.573,19.467C32.738,19.467 32.064,18.793 32.064,17.959C32.064,17.125 32.738,16.447 33.573,16.447C34.407,16.447 35.085,17.125 35.085,17.959" style="fill:rgb(64,108,164);"/>
        </g>
    </g>
</svg>
