<?xml version="1.0" encoding="UTF-8" standalone="no"?><!DOCTYPE svg PUBLIC "-//W3C//DTD SVG 1.1//EN" "http://www.w3.org/Graphics/SVG/1.1/DTD/svg11.dtd"><svg width="100%" height="100%" viewBox="0 0 55 55" version="1.1" xmlns="http://www.w3.org/2000/svg" xmlns:xlink="http://www.w3.org/1999/xlink" xml:space="preserve" xmlns:serif="http://www.serif.com/" style="fill-rule:evenodd;clip-rule:evenodd;"><g id="picto-ski-de-fond" serif:id="picto ski de fond"></g><rect id="Plan-de-travail1" serif:id="Plan de travail1" x="-374.589" y="-90.823" width="821.5" height="213.182" style="fill:none;"/><g id="Layer-1" serif:id="Layer 1"></g><g id="chornometre"></g><g id="Parcours_Blanc"><g><path d="M2.921,4.558l0,45.872c0,0.904 0.733,1.638 1.638,1.638l45.872,-0c0.904,-0 1.637,-0.734 1.637,-1.638l-0,-45.872c-0,-0.904 -0.733,-1.637 -1.637,-1.637l-45.872,0c-0.905,0 -1.638,0.733 -1.638,1.637Z" style="fill:#2e3092;fill-opacity:0;stroke:#406ca4;stroke-width:1.42px;"/><path d="M43.742,14.454c0,1.409 -1.202,2.537 -2.682,2.537c-1.486,0 -2.697,-1.128 -2.697,-2.537c0,-1.402 1.211,-2.54 2.697,-2.54c1.48,0 2.682,1.138 2.682,2.54" style="fill:#406ca4;"/><path d="M47.457,26.314c0.888,-0.043 1.562,-0.757 1.517,-1.592c-0.048,-0.835 -0.801,-1.478 -1.685,-1.429c-0,-0 -3.908,0.2 -6.021,0.311c0.396,-1.935 0.751,-3.67 0.751,-3.67c0.022,-0.098 0.031,-0.193 0.031,-0.296c-0,-0.703 -0.521,-1.339 -1.296,-1.48c-0.272,-0.048 -0.548,-0.007 -0.8,0.07c-0.856,0.237 -6.996,2.046 -6.996,2.046c-0.544,0.172 -0.961,0.61 -1.074,1.145l-1.218,5.661c-0.171,0.813 0.391,1.615 1.26,1.78c0.864,0.172 1.711,-0.363 1.886,-1.187c0,0 0.759,-3.54 1.028,-4.785c0.674,-0.205 1.465,-0.442 2.563,-0.778c-0.722,3.746 -1.967,10.155 -2.151,11.105c-1.25,0.576 -8.955,4.117 -8.955,4.117c-0.567,0.27 -0.902,0.807 -0.902,1.367c-0,0.219 0.048,0.442 0.16,0.658c0.393,0.752 1.351,1.066 2.148,0.697l9.688,-4.455c0.452,-0.218 0.778,-0.617 0.867,-1.09l0.651,-3.339c1.708,1.128 4.597,3.034 5.605,3.69c-0.49,1.57 -2.105,6.844 -2.105,6.844c-0.047,0.147 -0.066,0.286 -0.066,0.422c-0,0.655 0.457,1.264 1.154,1.453c0.85,0.236 1.743,-0.225 1.986,-1.028l2.421,-7.893c0.046,-0.14 0.064,-0.28 0.064,-0.426c0,-0.48 -0.24,-0.95 -0.681,-1.228c-0,0 -5.656,-3.731 -7.015,-4.625c0.072,-0.351 0.198,-0.973 0.353,-1.718l6.832,-0.347Z" style="fill:#406ca4;"/><path d="M2.921,38.995c0.187,0.025 0.376,0.038 0.567,0.038c2.313,-0.007 4.194,-1.889 4.194,-4.197c-0,-2.304 -1.881,-4.182 -4.194,-4.182c-0.191,-0 -0.38,0.012 -0.567,0.038l0,-3.231c0.188,-0.014 0.377,-0.021 0.567,-0.021c2.058,-0 3.92,0.839 5.261,2.193c1.324,1.337 2.141,3.176 2.136,5.203c-0,2.01 -0.804,3.839 -2.11,5.175c-1.342,1.373 -3.214,2.228 -5.287,2.228c-0.19,-0 -0.379,-0.008 -0.567,-0.022l0,-3.222Z" style="fill:#406ca4;"/><path d="M21.473,37.794c-0.794,-0.786 -1.228,-1.842 -1.226,-2.95c-0.002,-1.128 0.432,-2.177 1.226,-2.967c0.787,-0.796 1.84,-1.223 2.954,-1.223c2.305,-0 4.195,1.879 4.195,4.181c-0,2.317 -1.884,4.198 -4.195,4.198c-1.114,0 -2.167,-0.442 -2.954,-1.239m-2.28,-8.186c-1.395,1.398 -2.159,3.257 -2.159,5.236c-0,1.964 0.764,3.829 2.159,5.228c1.401,1.401 3.252,2.166 5.234,2.166c4.089,0.003 7.406,-3.309 7.409,-7.394l-0,-0.009c-0,-4.077 -3.32,-7.395 -7.409,-7.402c-1.982,-0 -3.833,0.773 -5.234,2.175" style="fill:#406ca4;"/><path d="M13.552,29.62c-0.387,0.468 -0.973,1.143 -1.594,1.877l-0,-3.527c0.604,0.62 1.188,1.224 1.594,1.65m9.191,-4.788l-4.867,-7.479c-0.258,-0.39 -0.665,-0.66 -1.132,-0.715c-0.464,-0.07 -0.939,0.082 -1.287,0.393l-6.283,5.663c-0.312,0.294 -0.507,0.706 -0.522,1.137l-0,0.056c-0,0.216 0.097,0.717 0.097,0.772l-0,10.67c-0.197,0.274 -0.307,0.59 -0.307,0.901c-0,0.32 0.127,0.613 0.307,0.877l-0,2.616c-0,0.881 0.723,1.61 1.617,1.61c0.877,0 1.592,-0.729 1.592,-1.61l-0,-3.259l4.985,-5.87c0.262,-0.302 0.381,-0.671 0.381,-1.041c-0,-0.406 -0.149,-0.806 -0.444,-1.12c-0,0 -2.884,-2.976 -4.318,-4.466c1.158,-1.042 2.382,-2.148 3.642,-3.29c1.276,1.971 3.834,5.906 3.834,5.906c0.486,0.739 1.481,0.957 2.227,0.471c0.74,-0.484 0.957,-1.478 0.478,-2.222" style="fill:#406ca4;"/><path d="M24.239,15.454c-0,1.491 -1.211,2.696 -2.702,2.696c-1.493,-0 -2.697,-1.205 -2.697,-2.696c-0,-1.492 1.204,-2.704 2.697,-2.704c1.491,0 2.702,1.212 2.702,2.704" style="fill:#406ca4;"/></g></g><g id="Depart_Blanc"></g></svg>