<?xml version="1.0" encoding="UTF-8" standalone="no"?>
<!DOCTYPE svg PUBLIC "-//W3C//DTD SVG 1.1//EN" "http://www.w3.org/Graphics/SVG/1.1/DTD/svg11.dtd">
<svg width="100%" height="100%" viewBox="0 0 56 56" version="1.1" xmlns="http://www.w3.org/2000/svg" xmlns:xlink="http://www.w3.org/1999/xlink" xml:space="preserve" xmlns:serif="http://www.serif.com/" style="fill-rule:evenodd;clip-rule:evenodd;">
    <g transform="matrix(1,0,0,1,0.00640499,0.00640499)">
        <g>
            <path d="M2.921,4.558C2.921,3.654 3.654,2.921 4.559,2.921L50.431,2.921C51.335,2.921 52.068,3.654 52.068,4.558L52.068,50.43C52.068,51.334 51.335,52.068 50.431,52.068L4.559,52.068C3.654,52.068 2.921,51.334 2.921,50.43L2.921,4.558Z" style="fill:white;"/>
            <path d="M2.921,4.558L2.921,50.43C2.921,51.334 3.654,52.068 4.559,52.068L50.431,52.068C51.335,52.068 52.068,51.334 52.068,50.43L52.068,4.558C52.068,3.654 51.335,2.921 50.431,2.921L4.559,2.921C3.654,2.921 2.921,3.654 2.921,4.558Z" style="fill:rgb(46,48,146);fill-opacity:0;stroke:rgb(64,108,164);stroke-width:1.42px;"/>
            <path d="M43.742,14.454C43.742,15.863 42.54,16.991 41.06,16.991C39.574,16.991 38.363,15.863 38.363,14.454C38.363,13.052 39.574,11.914 41.06,11.914C42.54,11.914 43.742,13.052 43.742,14.454" style="fill:rgb(64,108,164);"/>
            <path d="M47.457,26.314C48.345,26.271 49.019,25.557 48.974,24.722C48.926,23.887 48.173,23.244 47.289,23.293C47.289,23.293 43.381,23.493 41.268,23.604C41.664,21.669 42.019,19.934 42.019,19.934C42.041,19.836 42.05,19.741 42.05,19.638C42.05,18.935 41.529,18.299 40.754,18.158C40.482,18.11 40.206,18.151 39.954,18.228C39.098,18.465 32.958,20.274 32.958,20.274C32.414,20.446 31.997,20.884 31.884,21.419L30.666,27.08C30.495,27.893 31.057,28.695 31.926,28.86C32.79,29.032 33.637,28.497 33.812,27.673C33.812,27.673 34.571,24.133 34.84,22.888C35.514,22.683 36.305,22.446 37.403,22.11C36.681,25.856 35.436,32.265 35.252,33.215C34.002,33.791 26.297,37.332 26.297,37.332C25.73,37.602 25.395,38.139 25.395,38.699C25.395,38.918 25.443,39.141 25.555,39.357C25.948,40.109 26.906,40.423 27.703,40.054L37.391,35.599C37.843,35.381 38.169,34.982 38.258,34.509L38.909,31.17C40.617,32.298 43.506,34.204 44.514,34.86C44.024,36.43 42.409,41.704 42.409,41.704C42.362,41.851 42.343,41.99 42.343,42.126C42.343,42.781 42.8,43.39 43.497,43.579C44.347,43.815 45.24,43.354 45.483,42.551L47.904,34.658C47.95,34.518 47.968,34.378 47.968,34.232C47.968,33.752 47.728,33.282 47.287,33.004C47.287,33.004 41.631,29.273 40.272,28.379C40.344,28.028 40.47,27.406 40.625,26.661L47.457,26.314Z" style="fill:rgb(64,108,164);"/>
            <path d="M2.921,38.995C3.108,39.02 3.297,39.033 3.488,39.033C5.801,39.026 7.682,37.144 7.682,34.836C7.682,32.532 5.801,30.654 3.488,30.654C3.297,30.654 3.108,30.666 2.921,30.692L2.921,27.461C3.109,27.447 3.298,27.44 3.488,27.44C5.546,27.44 7.408,28.279 8.749,29.633C10.073,30.97 10.89,32.809 10.885,34.836C10.885,36.846 10.081,38.675 8.775,40.011C7.433,41.384 5.561,42.239 3.488,42.239C3.298,42.239 3.109,42.231 2.921,42.217L2.921,38.995Z" style="fill:rgb(64,108,164);"/>
            <path d="M21.473,37.794C20.679,37.008 20.245,35.952 20.247,34.844C20.245,33.716 20.679,32.667 21.473,31.877C22.26,31.081 23.313,30.654 24.427,30.654C26.732,30.654 28.622,32.533 28.622,34.835C28.622,37.152 26.738,39.033 24.427,39.033C23.313,39.033 22.26,38.591 21.473,37.794M19.193,29.608C17.798,31.006 17.034,32.865 17.034,34.844C17.034,36.808 17.798,38.673 19.193,40.072C20.594,41.473 22.445,42.238 24.427,42.238C28.516,42.241 31.833,38.929 31.836,34.844L31.836,34.835C31.836,30.758 28.516,27.44 24.427,27.433C22.445,27.433 20.594,28.206 19.193,29.608" style="fill:rgb(64,108,164);"/>
            <path d="M13.552,29.62C13.165,30.088 12.579,30.763 11.958,31.497L11.958,27.97C12.562,28.59 13.146,29.194 13.552,29.62M22.743,24.832L17.876,17.353C17.618,16.963 17.211,16.693 16.744,16.638C16.28,16.568 15.805,16.72 15.457,17.031L9.174,22.694C8.862,22.988 8.667,23.4 8.652,23.831L8.652,23.887C8.652,24.103 8.749,24.604 8.749,24.659L8.749,35.329C8.552,35.603 8.442,35.919 8.442,36.23C8.442,36.55 8.569,36.843 8.749,37.107L8.749,39.723C8.749,40.604 9.472,41.333 10.366,41.333C11.243,41.333 11.958,40.604 11.958,39.723L11.958,36.464L16.943,30.594C17.205,30.292 17.324,29.923 17.324,29.553C17.324,29.147 17.175,28.747 16.88,28.433C16.88,28.433 13.996,25.457 12.562,23.967C13.72,22.925 14.944,21.819 16.204,20.677C17.48,22.648 20.038,26.583 20.038,26.583C20.524,27.322 21.519,27.54 22.265,27.054C23.005,26.57 23.222,25.576 22.743,24.832" style="fill:rgb(64,108,164);"/>
            <path d="M24.239,15.454C24.239,16.945 23.028,18.15 21.537,18.15C20.044,18.15 18.84,16.945 18.84,15.454C18.84,13.962 20.044,12.75 21.537,12.75C23.028,12.75 24.239,13.962 24.239,15.454" style="fill:rgb(64,108,164);"/>
        </g>
    </g>
</svg>
