<?xml version="1.0" encoding="UTF-8" standalone="no"?>
<!DOCTYPE svg PUBLIC "-//W3C//DTD SVG 1.1//EN" "http://www.w3.org/Graphics/SVG/1.1/DTD/svg11.dtd">
<svg width="100%" height="100%" viewBox="0 0 56 56" version="1.1" xmlns="http://www.w3.org/2000/svg" xmlns:xlink="http://www.w3.org/1999/xlink" xml:space="preserve" xmlns:serif="http://www.serif.com/" style="fill-rule:evenodd;clip-rule:evenodd;">
    <g transform="matrix(1,0,0,1,0.00640499,0.00640499)">
        <g>
            <path d="M2.921,4.558C2.921,3.654 3.654,2.921 4.559,2.921L50.431,2.921C51.335,2.921 52.068,3.654 52.068,4.558L52.068,50.43C52.068,51.334 51.335,52.068 50.431,52.068L4.559,52.068C3.654,52.068 2.921,51.334 2.921,50.43L2.921,4.558Z" style="fill:white;"/>
            <path d="M2.921,4.558L2.921,50.43C2.921,51.334 3.654,52.068 4.559,52.068L50.431,52.068C51.335,52.068 52.068,51.334 52.068,50.43L52.068,4.558C52.068,3.654 51.335,2.921 50.431,2.921L4.559,2.921C3.654,2.921 2.921,3.654 2.921,4.558Z" style="fill:white;fill-opacity:0;stroke:rgb(64,108,164);stroke-width:1.42px;"/>
            <path d="M25.853,13.287C25.853,14.216 25.098,14.972 24.168,14.972C23.24,14.972 22.488,14.216 22.488,13.287C22.488,12.357 23.24,11.598 24.168,11.598C25.098,11.598 25.853,12.357 25.853,13.287" style="fill:rgb(45,85,143);"/>
            <path d="M13.561,4.872C13.158,5.252 13.134,5.887 13.511,6.288L23.707,17.231C23.897,17.429 24.163,17.544 24.443,17.544L28.888,17.544C29.447,17.544 29.894,17.096 29.894,16.539C29.894,15.987 29.447,15.54 28.888,15.54L24.879,15.54C24.315,14.945 14.981,4.922 14.981,4.922C14.604,4.516 13.972,4.492 13.561,4.872" style="fill:rgb(64,108,164);"/>
            <path d="M15.567,11.549C15.191,11.708 14.945,12.076 14.945,12.476L14.945,16.83L10.169,16.83C9.613,16.83 9.169,17.286 9.169,17.838C9.169,18.396 9.613,18.84 10.169,18.84L15.95,18.84C16.505,18.84 16.955,18.396 16.955,17.838L16.955,14.899C17.98,15.921 18.619,16.566 19.116,17.064C18.424,18.056 16.392,20.97 16.392,20.97C16.268,21.149 16.209,21.347 16.209,21.545C16.209,21.862 16.36,22.169 16.636,22.371C17.091,22.685 17.715,22.576 18.03,22.121L21.245,17.525C21.522,17.124 21.471,16.583 21.128,16.238L16.658,11.764C16.372,11.481 15.941,11.393 15.567,11.549" style="fill:rgb(64,108,164);"/>
            <path d="M18.953,23.709C18.953,24.202 18.557,24.601 18.066,24.601C17.573,24.601 17.177,24.202 17.177,23.709C17.177,23.223 17.573,22.822 18.066,22.822C18.557,22.822 18.953,23.223 18.953,23.709" style="fill:rgb(64,108,164);"/>
            <path d="M16.845,23.709C16.845,24.202 16.449,24.601 15.955,24.601C15.464,24.601 15.065,24.202 15.065,23.709C15.065,23.223 15.464,22.822 15.955,22.822C16.449,22.822 16.845,23.223 16.845,23.709" style="fill:rgb(64,108,164);"/>
            <path d="M14.737,23.709C14.737,24.202 14.342,24.601 13.851,24.601C13.358,24.601 12.962,24.202 12.962,23.709C12.962,23.223 13.358,22.822 13.851,22.822C14.342,22.822 14.737,23.223 14.737,23.709" style="fill:rgb(64,108,164);"/>
            <path d="M8.144,14.129C8.637,14.129 9.035,14.526 9.035,15.017C9.035,15.509 8.637,15.904 8.144,15.904C7.653,15.904 7.255,15.509 7.255,15.017C7.255,14.526 7.653,14.129 8.144,14.129" style="fill:rgb(64,108,164);"/>
            <path d="M8.144,16.233C8.637,16.233 9.035,16.632 9.035,17.124C9.035,17.617 8.637,18.012 8.144,18.012C7.653,18.012 7.255,17.617 7.255,17.124C7.255,16.632 7.653,16.233 8.144,16.233" style="fill:rgb(64,108,164);"/>
            <path d="M8.144,18.337C8.637,18.337 9.035,18.736 9.035,19.231C9.035,19.718 8.637,20.12 8.144,20.12C7.653,20.12 7.255,19.718 7.255,19.231C7.255,18.736 7.653,18.337 8.144,18.337" style="fill:rgb(64,108,164);"/>
            <path d="M44.377,7.882C44.377,8.771 43.661,9.482 42.78,9.482C41.895,9.482 41.175,8.771 41.175,7.882C41.175,6.998 41.895,6.281 42.78,6.281C43.661,6.281 44.377,6.998 44.377,7.882" style="fill:rgb(64,108,164);"/>
            <path d="M46.589,15.359C47.117,15.332 47.518,14.881 47.492,14.355C47.463,13.829 47.014,13.423 46.488,13.454C46.488,13.454 44.162,13.58 42.904,13.65C43.14,12.431 43.351,11.337 43.351,11.337C43.364,11.275 43.369,11.215 43.369,11.15C43.369,10.707 43.059,10.306 42.598,10.217C42.436,10.187 42.272,10.213 42.122,10.261C41.612,10.411 37.956,11.551 37.956,11.551C37.633,11.66 37.384,11.936 37.317,12.273L36.592,15.842C36.49,16.354 36.825,16.859 37.343,16.963C37.857,17.072 38.361,16.735 38.465,16.216C38.465,16.216 38.917,13.984 39.077,13.199C39.479,13.07 39.95,12.921 40.603,12.709C40.173,15.07 39.432,19.11 39.322,19.709C38.578,20.072 33.991,22.304 33.991,22.304C33.654,22.474 33.454,22.813 33.454,23.166C33.454,23.304 33.483,23.444 33.549,23.581C33.783,24.055 34.353,24.253 34.828,24.02L40.596,21.212C40.865,21.074 41.059,20.823 41.112,20.525L41.499,18.42C42.516,19.131 44.236,20.332 44.836,20.746C44.545,21.736 43.583,25.06 43.583,25.06C43.555,25.153 43.544,25.241 43.544,25.326C43.544,25.739 43.816,26.123 44.231,26.242C44.737,26.391 45.269,26.1 45.414,25.594L46.854,20.619C46.882,20.53 46.893,20.442 46.893,20.35C46.893,20.047 46.75,19.751 46.487,19.576C46.487,19.576 43.12,17.224 42.311,16.661C42.354,16.439 42.429,16.047 42.521,15.577L46.589,15.359Z" style="fill:rgb(64,108,164);"/>
            <path d="M18.273,37.415C18.273,38.417 17.462,39.234 16.457,39.234C15.45,39.234 14.635,38.417 14.635,37.415C14.635,36.412 15.45,35.596 16.457,35.596C17.462,35.596 18.273,36.412 18.273,37.415" style="fill:rgb(64,108,164);"/>
            <path d="M2.921,37.29C3.029,37.285 3.095,37.281 3.102,37.279L9.487,36.489L13.615,32.455C13.893,32.188 14.282,32.087 14.644,32.18L21.134,33.855C21.709,34.006 22.064,34.593 21.907,35.175C21.763,35.754 21.172,36.1 20.596,35.953C20.596,35.953 15.677,34.681 14.694,34.432C14.39,34.734 13.219,35.875 11.917,37.146L13.382,38.066C13.73,38.288 13.897,38.663 13.865,39.04C14.445,39.179 14.862,39.389 15.208,39.584C15.638,39.822 15.914,39.98 16.571,39.98C17.253,39.98 17.603,39.803 18.095,39.561C18.679,39.266 19.401,38.908 20.627,38.908L22.26,39.146C22.855,39.228 23.117,39.74 23.027,40.343C22.944,40.929 22.242,41.302 21.645,41.22L20.627,41.079C19.912,41.079 19.554,41.251 19.059,41.5C18.485,41.787 17.763,42.146 16.571,42.146C15.355,42.146 14.69,41.778 14.154,41.477C13.713,41.234 13.43,41.079 12.742,41.079C11.906,41.079 11.192,41.331 10.442,41.601C9.703,41.87 8.933,42.146 8.057,42.146C7.27,42.146 6.756,41.92 6.261,41.704C5.65,41.434 4.886,41.104 2.921,41.08L2.921,37.29Z" style="fill:rgb(64,108,164);"/>
            <path d="M30.942,44.14C30.498,43.7 30.255,43.112 30.255,42.482C30.255,41.859 30.498,41.273 30.942,40.827C31.38,40.387 31.974,40.142 32.596,40.142C33.89,40.142 34.942,41.193 34.942,42.482C34.942,43.773 33.89,44.825 32.596,44.83C31.974,44.83 31.383,44.582 30.942,44.14M29.667,39.558C28.886,40.34 28.454,41.379 28.454,42.486C28.454,43.591 28.886,44.63 29.67,45.411C30.453,46.194 31.492,46.623 32.596,46.623C34.885,46.623 36.734,44.762 36.734,42.482C36.74,40.2 34.885,38.344 32.596,38.344C31.489,38.344 30.45,38.776 29.667,39.558" style="fill:rgb(64,108,164);"/>
            <path d="M42.657,44.136C42.213,43.697 41.97,43.106 41.971,42.486C41.97,41.855 42.213,41.268 42.657,40.827C43.098,40.381 43.687,40.142 44.31,40.142C45.599,40.142 46.656,41.193 46.656,42.481C46.656,43.777 45.603,44.83 44.31,44.83C43.687,44.83 43.098,44.582 42.657,44.136M41.382,39.557C40.601,40.339 40.174,41.379 40.174,42.486C40.174,43.585 40.601,44.628 41.382,45.411C42.166,46.194 43.201,46.623 44.31,46.623C46.597,46.624 48.453,44.771 48.454,42.486L48.454,42.481C48.454,40.2 46.597,38.344 44.31,38.34C43.201,38.34 42.166,38.773 41.382,39.557" style="fill:rgb(64,108,164);"/>
            <path d="M38.226,39.564C38.01,39.825 37.682,40.203 37.334,40.614L37.334,38.641C37.672,38.987 37.999,39.325 38.226,39.564M43.368,36.885L40.645,32.702C40.501,32.484 40.273,32.333 40.012,32.302C39.752,32.263 39.487,32.347 39.292,32.522L35.777,35.69C35.603,35.854 35.493,36.085 35.485,36.325L35.485,36.357C35.485,36.478 35.539,36.758 35.539,36.789L35.539,42.758C35.429,42.911 35.368,43.088 35.368,43.261C35.368,43.44 35.439,43.604 35.539,43.752L35.539,45.216C35.539,45.709 35.944,46.116 36.444,46.116C36.935,46.116 37.334,45.709 37.334,45.216L37.334,43.393L40.123,40.108C40.27,39.94 40.336,39.734 40.336,39.526C40.336,39.299 40.253,39.075 40.088,38.9C40.088,38.9 38.475,37.235 37.672,36.402C38.32,35.819 39.005,35.2 39.71,34.561C40.424,35.663 41.855,37.865 41.855,37.865C42.126,38.278 42.683,38.4 43.1,38.129C43.514,37.857 43.636,37.302 43.368,36.885" style="fill:rgb(64,108,164);"/>
            <path d="M44.205,31.639C44.205,32.473 43.527,33.147 42.693,33.147C41.858,33.147 41.184,32.473 41.184,31.639C41.184,30.805 41.858,30.127 42.693,30.127C43.527,30.127 44.205,30.805 44.205,31.639" style="fill:rgb(64,108,164);"/>
        </g>
    </g>
</svg>
