<?xml version="1.0" encoding="UTF-8" standalone="no"?><!DOCTYPE svg PUBLIC "-//W3C//DTD SVG 1.1//EN" "http://www.w3.org/Graphics/SVG/1.1/DTD/svg11.dtd"><svg width="100%" height="100%" viewBox="0 0 55 55" version="1.1" xmlns="http://www.w3.org/2000/svg" xmlns:xlink="http://www.w3.org/1999/xlink" xml:space="preserve" xmlns:serif="http://www.serif.com/" style="fill-rule:evenodd;clip-rule:evenodd;"><g><path d="M2.921,50.43c0,0.904 0.733,1.637 1.638,1.637l45.871,0c0.905,0 1.638,-0.733 1.638,-1.637l-0,-45.871c-0,-0.905 -0.733,-1.638 -1.638,-1.638l-45.871,0c-0.905,0 -1.638,0.733 -1.638,1.638l0,45.871Z" style="fill:#2e3092;fill-opacity:0;stroke:#3d6ca4;stroke-width:1.42px;"/><path d="M38.057,26.115c0,1.741 -1.409,3.161 -3.157,3.161c-1.751,0 -3.167,-1.42 -3.167,-3.161c0,-1.744 1.416,-3.162 3.167,-3.162c1.748,-0 3.157,1.418 3.157,3.162" style="fill:#3d6ca4;"/><path d="M44.989,29.123l-2.84,-0.412c-2.131,-0 -3.386,0.621 -4.402,1.134c-0.855,0.421 -1.463,0.729 -2.647,0.729c-1.142,0 -1.624,-0.276 -2.371,-0.689c-0.601,-0.339 -1.326,-0.703 -2.334,-0.945c0.056,-0.655 -0.234,-1.307 -0.84,-1.694l-2.547,-1.599c2.264,-2.209 4.301,-4.193 4.829,-4.718c1.709,0.434 10.258,2.645 10.258,2.645c1.001,0.254 2.029,-0.347 2.28,-1.353c0.271,-1.011 -0.346,-2.033 -1.344,-2.295l-11.281,-2.911c-0.631,-0.162 -1.306,0.014 -1.79,0.478l-7.175,7.012l-11.098,1.373c-0.082,0.02 -4.551,0.205 -4.551,0.205c-1.027,0.177 -0.885,1.313 -1.008,2.341c-0.056,0.538 -0.056,1.572 -0.073,1.955c-0.05,1.037 0.017,2.253 0.358,2.667c0.365,0.415 0.992,0.146 1.883,-0.083c0.884,-0.244 2.676,-0.48 2.676,-0.48c3.714,0 5.103,0.599 6.205,1.088c0.862,0.375 1.754,0.768 3.122,0.768c1.524,0 2.862,-0.481 4.147,-0.948c1.302,-0.469 2.544,-0.908 3.996,-0.908c1.196,0 1.689,0.271 2.456,0.692c0.931,0.524 2.086,1.164 4.202,1.164c2.071,0 3.325,-0.625 4.324,-1.123c0.859,-0.433 1.482,-0.733 2.725,-0.733l1.77,0.245c1.038,0.143 2.257,-0.505 2.402,-1.524c0.156,-1.048 -0.299,-1.938 -1.332,-2.081" style="fill:#3d6ca4;"/></g></svg>